<svg width="270" height="78" viewBox="0 0 270 78" fill="none" xmlns="http://www.w3.org/2000/svg">
<path fill-rule="evenodd" clip-rule="evenodd" d="M31.0795 16.7502C35.8333 29.2005 28.085 37.192 20.3658 45.1925C13.1841 53.3717 6.85415 61.8712 19.5815 77.1704C14.8273 64.7244 22.5789 56.7317 30.2893 48.7355C37.4811 40.5364 43.8065 32.0494 31.0795 16.7502Z" fill="#E62D37"/>
<path fill-rule="evenodd" clip-rule="evenodd" d="M19.5815 0.82959C24.3412 13.2812 16.5958 21.2684 8.87198 29.2688C1.68735 37.4541 -4.63512 45.9519 8.09514 61.251C3.33801 48.793 11.0867 40.811 18.803 32.8088C25.9889 24.6235 32.3101 16.1284 19.5815 0.82959Z" fill="#0AA373"/>
<path fill-rule="evenodd" clip-rule="evenodd" d="M214.882 50.1335V75.5815H225.683V66.2634H237.545V60.6962H225.683V55.7054H249.212V75.5815H260.009V55.7054H269.79V50.1335H214.882Z" fill="#0AA373"/>
<path fill-rule="evenodd" clip-rule="evenodd" d="M191.724 70.0582V65.648H205.799V60.0718H191.724V55.7054H209.806V50.1335H180.926V75.5815H210.026V70.0582H191.724Z" fill="#0AA373"/>
<path fill-rule="evenodd" clip-rule="evenodd" d="M77.8555 50.1335H47.9379V55.7054H57.4989V75.5815H68.2962V55.7054H77.8555V50.1335Z" fill="#E62D37"/>
<path fill-rule="evenodd" clip-rule="evenodd" d="M86.0301 65.9406L91.025 56.0887L95.8054 65.9406H86.0301ZM99.1717 50.1335H87.5988L74.1237 75.5815H81.141L83.357 71.2121H98.4873L100.696 75.5815H112.651L99.1717 50.1335Z" fill="#E62D37"/>
<path fill-rule="evenodd" clip-rule="evenodd" d="M167.679 50.1348V62.8537L150.413 50.1348H142.029V75.5816H149.424V61.5786L167.149 75.5816H175.068V50.1348H167.679Z" fill="#0AA373"/>
<path fill-rule="evenodd" clip-rule="evenodd" d="M138.364 50.1335H109.076V55.7054H118.635V75.5815H129.431V55.7054H138.364V50.1335Z" fill="#E62D37"/>
<path fill-rule="evenodd" clip-rule="evenodd" d="M49.9231 31.9787H56.7546V33.17H51.3254V36.3043H53.8393C54.774 36.3043 55.5141 36.3893 56.0566 36.5618C56.5989 36.7321 57.0363 37.0536 57.3688 37.524C57.7015 37.9943 57.8693 38.5475 57.8693 39.1808C57.8693 39.7765 57.7135 40.3178 57.4048 40.8024C57.0933 41.2869 56.6918 41.6297 56.1943 41.8306C55.6969 42.0316 54.9808 42.1332 54.0459 42.1332H49.9231V31.9787ZM51.3254 40.9844H54.1028C54.822 40.9844 55.3764 40.8497 55.7689 40.5802C56.1615 40.3107 56.3592 39.857 56.3592 39.2164C56.3592 38.7814 56.2482 38.4269 56.0236 38.1503C55.7988 37.8737 55.4992 37.6917 55.1217 37.6019C54.7471 37.5121 54.1028 37.4672 53.1862 37.4672H51.3254V40.9844ZM60.2993 31.9787H66.9151V42.1332H65.5129V33.17H61.7016V38.4009C61.7016 39.4409 61.6507 40.2114 61.5488 40.7126C61.4439 41.2137 61.2251 41.6036 60.8895 41.885C60.551 42.1639 60.1375 42.3033 59.6432 42.3033C59.3226 42.3033 58.948 42.2466 58.5195 42.1332L58.7563 40.9418C58.9839 41.0364 59.1787 41.0836 59.3434 41.0836C59.6521 41.0836 59.8887 40.9725 60.0536 40.7504C60.2184 40.5306 60.2993 39.9869 60.2993 39.1242V31.9787ZM68.0508 42.1332L72.1168 31.9787H73.6148L77.9206 42.1332H76.3234L75.1101 39.0556H70.6605L69.519 42.1332H68.0508ZM71.0681 37.9636H74.6816L73.5759 35.1508C73.2342 34.2881 72.9827 33.586 72.8238 33.0447C72.6861 33.6971 72.4942 34.3424 72.2455 34.9853L71.0681 37.9636ZM79.05 31.9787H85.4501V33.17H80.4524V42.1332H79.05V31.9787ZM86.5288 37.1907C86.5288 35.4604 87.0112 34.132 87.979 33.2031C88.9439 32.2741 90.1482 31.8085 91.5895 31.8085C92.5213 31.8085 93.3694 32.0166 94.1363 32.4302C94.9034 32.8461 95.5116 33.4489 95.9611 34.2408C96.4076 35.0302 96.6322 35.9734 96.6322 37.0654C96.6322 38.5687 96.1978 39.7931 95.3319 40.7385C94.3761 41.781 93.1265 42.3033 91.5805 42.3033C90.0225 42.3033 88.77 41.7691 87.8201 40.6984C86.9603 39.7293 86.5288 38.5616 86.5288 37.1907ZM87.967 37.2072C87.967 38.4599 88.3175 39.429 89.0188 40.1193C89.7169 40.8095 90.5708 41.1546 91.5715 41.1546C92.5963 41.1546 93.4561 40.8071 94.1514 40.1098C94.8465 39.4126 95.194 38.3867 95.194 37.0347C95.194 36.1625 95.0142 35.3824 94.6576 34.6946C94.382 34.1698 93.9686 33.7468 93.4143 33.4323C92.8599 33.1157 92.2546 32.9573 91.5985 32.9573C90.5438 32.9573 89.6749 33.3024 88.9917 33.995C88.3085 34.6876 87.967 35.7582 87.967 37.2072ZM101.094 42.1332V33.17H97.624V31.9787H105.984V33.17H102.496V42.1332H101.094ZM107.35 42.1332V31.9787H111.317C112.123 31.9787 112.758 32.0756 113.229 32.2719C113.696 32.468 114.08 32.7729 114.379 33.1889C114.679 33.605 114.829 34.0636 114.829 34.5646C114.829 35.0302 114.7 35.451 114.442 35.8245C114.182 36.1979 113.819 36.4957 113.349 36.7227C113.957 36.8976 114.436 37.1978 114.787 37.6209C115.137 38.044 115.314 38.5663 115.314 39.1856C115.314 39.8002 115.155 40.339 114.835 40.8048C114.517 41.2704 114.092 41.606 113.561 41.8164C113.028 42.0268 112.297 42.1332 111.368 42.1332H107.35ZM108.752 36.2475H111.036C111.635 36.2475 112.06 36.2145 112.312 36.1506C112.674 36.0537 112.953 35.8907 113.151 35.6613C113.346 35.4321 113.444 35.1201 113.444 34.7254C113.444 34.3613 113.355 34.0564 113.178 33.813C112.998 33.5695 112.761 33.4017 112.465 33.3095C112.168 33.2173 111.638 33.17 110.871 33.17H108.752V36.2475ZM108.752 40.9418H111.377C111.955 40.9418 112.381 40.8993 112.657 40.8166C113.055 40.696 113.358 40.4974 113.564 40.2233C113.771 39.9468 113.876 39.5993 113.876 39.1833C113.876 38.7979 113.777 38.4741 113.576 38.2071C113.379 37.9399 113.112 37.7461 112.776 37.6232C112.438 37.5003 111.91 37.4389 111.191 37.4389H108.752V40.9418ZM116.839 37.1907C116.839 35.4604 117.322 34.132 118.289 33.2031C119.254 32.2741 120.459 31.8085 121.9 31.8085C122.832 31.8085 123.68 32.0166 124.447 32.4302C125.214 32.8461 125.822 33.4489 126.272 34.2408C126.718 35.0302 126.943 35.9734 126.943 37.0654C126.943 38.5687 126.508 39.7931 125.642 40.7385C124.686 41.781 123.437 42.3033 121.891 42.3033C120.333 42.3033 119.081 41.7691 118.131 40.6984C117.271 39.7293 116.839 38.5616 116.839 37.1907ZM118.277 37.2072C118.277 38.4599 118.628 39.429 119.329 40.1193C120.027 40.8095 120.881 41.1546 121.882 41.1546C122.907 41.1546 123.767 40.8071 124.462 40.1098C125.157 39.4126 125.504 38.3867 125.504 37.0347C125.504 36.1625 125.325 35.3824 124.968 34.6946C124.692 34.1698 124.279 33.7468 123.725 33.4323C123.17 33.1157 122.565 32.9573 121.909 32.9573C120.854 32.9573 119.985 33.3024 119.302 33.995C118.619 34.6876 118.277 35.7582 118.277 37.2072ZM128.689 42.1332V31.9787H132.669C133.606 31.9787 134.296 32.0425 134.742 32.1725C135.35 32.3475 135.836 32.6713 136.198 33.1463C136.561 33.6214 136.744 34.2053 136.744 34.8955C136.744 35.8079 136.447 36.5525 135.857 37.1268C135.266 37.7036 134.245 37.9919 132.794 37.9919H130.092V42.1332H128.689ZM130.092 36.8007H132.821C133.681 36.8007 134.311 36.647 134.709 36.3397C135.108 36.0325 135.305 35.5691 135.305 34.9499C135.305 34.548 135.206 34.2053 135.012 33.9193C134.814 33.6309 134.577 33.4348 134.302 33.3284C134.023 33.222 133.52 33.17 132.794 33.17H130.092V36.8007ZM138.538 31.9787H139.797V40.0508L145.445 31.9787H146.844V42.1332H145.585V34.0493L139.929 42.1332H138.538V31.9787ZM151.83 42.1332V33.17H148.36V31.9787H156.72V33.17H153.232V42.1332H151.83ZM158.158 42.1332V31.9787H165.781V33.17H159.56V36.2901H165.403V37.4814H159.56V40.9418H166.032V42.1332H158.158ZM168.726 31.9787H175.342V42.1332H173.94V33.17H170.128V38.4009C170.128 39.4409 170.077 40.2114 169.975 40.7126C169.87 41.2137 169.652 41.6036 169.316 41.885C168.978 42.1639 168.564 42.3033 168.07 42.3033C167.749 42.3033 167.375 42.2466 166.946 42.1332L167.183 40.9418C167.411 41.0364 167.605 41.0836 167.77 41.0836C168.079 41.0836 168.315 40.9725 168.48 40.7504C168.645 40.5306 168.726 39.9869 168.726 39.1242V31.9787ZM177.682 31.9787H179.084V36.3185H181.598C182.521 36.3185 183.258 36.4036 183.806 36.5737C184.355 36.7463 184.795 37.0654 185.128 37.5334C185.46 38.0014 185.628 38.5521 185.628 39.1833C185.628 39.9632 185.352 40.6511 184.798 41.2444C184.247 41.8377 183.21 42.1332 181.691 42.1332H177.682V31.9787ZM179.084 40.9844H181.637C182.503 40.9844 183.135 40.8449 183.537 40.5684C183.935 40.2895 184.136 39.8285 184.136 39.1856C184.136 38.7625 184.016 38.4126 183.779 38.1409C183.543 37.8667 183.24 37.6871 182.874 37.6043C182.506 37.5216 181.865 37.4814 180.951 37.4814H179.084V40.9844ZM187.303 42.1332V31.9787H188.705V36.1625H194.188V31.9787H195.591V42.1332H194.188V37.3537H188.705V42.1332H187.303ZM197.997 31.9787H199.399V36.3185H201.913C202.836 36.3185 203.573 36.4036 204.121 36.5737C204.669 36.7463 205.11 37.0654 205.442 37.5334C205.775 38.0014 205.943 38.5521 205.943 39.1833C205.943 39.9632 205.667 40.6511 205.113 41.2444C204.562 41.8377 203.525 42.1332 202.006 42.1332H197.997V31.9787ZM199.399 40.9844H201.952C202.818 40.9844 203.45 40.8449 203.851 40.5684C204.25 40.2895 204.451 39.8285 204.451 39.1856C204.451 38.7625 204.331 38.4126 204.094 38.1409C203.857 37.8667 203.555 37.6871 203.189 37.6043C202.821 37.5216 202.179 37.4814 201.266 37.4814H199.399V40.9844ZM207.902 42.1332V31.9787H209.305V42.1332H207.902ZM211.735 31.9787H212.993V40.0508L218.641 31.9787H220.04V42.1332H218.782V34.0493L213.125 42.1332H211.735V31.9787ZM217.326 29.4826H218.207C218.132 30.0807 217.901 30.5298 217.521 30.8323C217.14 31.1325 216.658 31.2838 216.073 31.2838C215.486 31.2838 215.004 31.1325 214.626 30.8323C214.249 30.5298 214.021 30.0807 213.946 29.4826H214.827C214.962 30.1066 215.366 30.4187 216.037 30.4187C216.412 30.4187 216.705 30.3454 216.909 30.1965C217.116 30.0499 217.254 29.8113 217.326 29.4826ZM230.222 33.1984V31.9787H231.534V33.1984C232.874 33.2669 233.934 33.6546 234.713 34.3637C235.495 35.0705 235.885 35.9521 235.885 37.0087C235.885 38.0675 235.498 38.9516 234.728 39.6608C233.955 40.3698 232.891 40.7599 231.534 40.8283V42.1332H230.222V40.8283C228.969 40.7812 227.926 40.4171 227.097 39.7293C226.267 39.0438 225.853 38.1361 225.853 37.0087C225.853 35.8836 226.267 34.9782 227.097 34.2928C227.926 33.6097 228.969 33.2456 230.222 33.1984ZM231.534 34.3471V39.6796C232.394 39.6276 233.095 39.3865 233.635 38.9516C234.177 38.5143 234.447 37.8691 234.447 37.0133C234.447 36.2074 234.189 35.5739 233.67 35.1106C233.152 34.6473 232.442 34.3945 231.534 34.3471ZM230.222 34.3471C229.347 34.385 228.64 34.6331 228.1 35.0964C227.561 35.5573 227.291 36.1955 227.291 37.0133C227.291 37.8313 227.561 38.4718 228.1 38.9351C228.64 39.3983 229.347 39.6466 230.222 39.6796V34.3471ZM237.233 37.1907C237.233 35.4604 237.715 34.132 238.683 33.2031C239.648 32.2741 240.853 31.8085 242.294 31.8085C243.226 31.8085 244.074 32.0166 244.841 32.4302C245.608 32.8461 246.216 33.4489 246.665 34.2408C247.112 35.0302 247.336 35.9734 247.336 37.0654C247.336 38.5687 246.902 39.7931 246.036 40.7385C245.08 41.781 243.831 42.3033 242.285 42.3033C240.727 42.3033 239.474 41.7691 238.524 40.6984C237.665 39.7293 237.233 38.5616 237.233 37.1907ZM238.671 37.2072C238.671 38.4599 239.022 39.429 239.723 40.1193C240.421 40.8095 241.275 41.1546 242.276 41.1546C243.301 41.1546 244.16 40.8071 244.856 40.1098C245.551 39.4126 245.898 38.3867 245.898 37.0347C245.898 36.1625 245.718 35.3824 245.362 34.6946C245.086 34.1698 244.673 33.7468 244.119 33.4323C243.564 33.1157 242.959 32.9573 242.303 32.9573C241.248 32.9573 240.379 33.3024 239.696 33.995C239.013 34.6876 238.671 35.7582 238.671 37.2072ZM249.083 42.1332V31.9787H250.486V36.1625H255.969V31.9787H257.371V42.1332H255.969V37.3537H250.486V42.1332H249.083ZM260.694 31.9787H267.112V40.9418H268.047V44.5016H266.806V42.1332H259.831V44.5016H258.591V40.9418H259.399C260.263 39.7127 260.694 37.219 260.694 33.4631V31.9787ZM265.71 33.17H262.042V33.69C262.042 34.5456 261.964 35.7204 261.805 37.2119C261.65 38.7035 261.326 39.9468 260.838 40.9418H265.71V33.17Z" fill="#0AA373"/>
</svg>
