<svg width="391" height="44" viewBox="0 0 391 44" fill="none" xmlns="http://www.w3.org/2000/svg">
<path fill-rule="evenodd" clip-rule="evenodd" d="M359.025 28.4169V43.0842H365.25V37.7136H372.087V34.5049H365.25V31.6284H378.812V43.0842H385.034V31.6284H390.672V28.4169H359.025Z" fill="#0AA373"/>
<path fill-rule="evenodd" clip-rule="evenodd" d="M345.678 39.9008V37.3589H353.79V34.145H345.678V31.6284H356.099V28.4169H339.454V43.0842H356.226V39.9008H345.678Z" fill="#0AA373"/>
<path fill-rule="evenodd" clip-rule="evenodd" d="M280.048 28.4169H262.805V31.6284H268.315V43.0842H274.539V31.6284H280.048V28.4169Z" fill="#E62D37"/>
<path fill-rule="evenodd" clip-rule="evenodd" d="M284.76 37.5276L287.638 31.8493L290.394 37.5276H284.76ZM292.334 28.4169H285.664L277.897 43.0842H281.942L283.219 40.5659H291.94L293.212 43.0842H300.103L292.334 28.4169Z" fill="#E62D37"/>
<path fill-rule="evenodd" clip-rule="evenodd" d="M331.819 28.4177V35.7484L321.867 28.4177H317.036V43.0842H321.298V35.0134L331.514 43.0842H336.078V28.4177H331.819Z" fill="#0AA373"/>
<path fill-rule="evenodd" clip-rule="evenodd" d="M314.923 28.4169H298.043V31.6284H303.552V43.0842H309.775V31.6284H314.923V28.4169Z" fill="#E62D37"/>
<path fill-rule="evenodd" clip-rule="evenodd" d="M263.949 17.9532H267.886V18.6398H264.757V20.4463H266.206C266.745 20.4463 267.171 20.4953 267.484 20.5947C267.797 20.6929 268.049 20.8781 268.24 21.1493C268.432 21.4203 268.529 21.7392 268.529 22.1042C268.529 22.4476 268.439 22.7595 268.261 23.0388C268.082 23.3181 267.85 23.5156 267.563 23.6314C267.277 23.7473 266.864 23.8058 266.325 23.8058H263.949V17.9532ZM264.757 23.1437H266.358C266.772 23.1437 267.092 23.0661 267.318 22.9108C267.544 22.7554 267.658 22.4939 267.658 22.1247C267.658 21.874 267.595 21.6697 267.465 21.5103C267.335 21.3509 267.163 21.246 266.945 21.1942C266.729 21.1424 266.358 21.1165 265.83 21.1165H264.757V23.1437ZM269.929 17.9532H273.742V23.8058H272.934V18.6398H270.738V21.6547C270.738 22.2541 270.708 22.6982 270.65 22.9871C270.589 23.2759 270.463 23.5006 270.27 23.6628C270.074 23.8235 269.836 23.9039 269.551 23.9039C269.366 23.9039 269.151 23.8712 268.904 23.8058L269.04 23.1192C269.171 23.1737 269.284 23.2009 269.378 23.2009C269.556 23.2009 269.693 23.1369 269.788 23.0089C269.883 22.8822 269.929 22.5688 269.929 22.0716V17.9532ZM274.397 23.8058L276.741 17.9532H277.604L280.086 23.8058H279.165L278.466 22.032H275.901L275.243 23.8058H274.397ZM276.136 21.4026H278.219L277.582 19.7815C277.385 19.2842 277.24 18.8796 277.148 18.5676C277.069 18.9436 276.958 19.3155 276.815 19.6861L276.136 21.4026ZM280.737 17.9532H284.425V18.6398H281.545V23.8058H280.737V17.9532ZM285.047 20.9572C285.047 19.9599 285.325 19.1943 285.883 18.6589C286.439 18.1235 287.133 17.8551 287.964 17.8551C288.501 17.8551 288.99 17.975 289.432 18.2134C289.874 18.4531 290.224 18.8006 290.484 19.257C290.741 19.712 290.87 20.2556 290.87 20.885C290.87 21.7514 290.62 22.4571 290.121 23.002C289.57 23.6029 288.85 23.9039 287.959 23.9039C287.061 23.9039 286.339 23.596 285.791 22.9789C285.296 22.4203 285.047 21.7473 285.047 20.9572ZM285.876 20.9667C285.876 21.6887 286.078 22.2473 286.482 22.6451C286.885 23.0429 287.377 23.2418 287.954 23.2418C288.544 23.2418 289.04 23.0415 289.44 22.6397C289.841 22.2378 290.041 21.6465 290.041 20.8673C290.041 20.3646 289.938 19.915 289.732 19.5185C289.573 19.2161 289.335 18.9722 289.016 18.791C288.696 18.6085 288.347 18.5172 287.969 18.5172C287.361 18.5172 286.86 18.7161 286.467 19.1153C286.073 19.5145 285.876 20.1316 285.876 20.9667ZM293.442 23.8058V18.6398H291.442V17.9532H296.26V18.6398H294.25V23.8058H293.442ZM297.048 23.8058V17.9532H299.334C299.799 17.9532 300.165 18.0091 300.436 18.1221C300.705 18.2352 300.926 18.4109 301.099 18.6507C301.272 18.8905 301.358 19.1548 301.358 19.4436C301.358 19.712 301.284 19.9545 301.135 20.1698C300.985 20.385 300.776 20.5566 300.505 20.6874C300.856 20.7882 301.132 20.9613 301.334 21.2051C301.536 21.449 301.638 21.7501 301.638 22.107C301.638 22.4612 301.546 22.7718 301.362 23.0402C301.179 23.3086 300.933 23.502 300.628 23.6233C300.32 23.7445 299.899 23.8058 299.364 23.8058H297.048ZM297.856 20.4136H299.172C299.517 20.4136 299.762 20.3945 299.908 20.3577C300.116 20.3019 300.277 20.2079 300.391 20.0757C300.503 19.9436 300.56 19.7637 300.56 19.5363C300.56 19.3264 300.508 19.1507 300.407 19.0104C300.303 18.87 300.167 18.7734 299.996 18.7202C299.825 18.667 299.519 18.6398 299.077 18.6398H297.856V20.4136ZM297.856 23.1192H299.369C299.702 23.1192 299.947 23.0947 300.106 23.047C300.336 22.9775 300.51 22.8631 300.629 22.7051C300.749 22.5457 300.809 22.3454 300.809 22.1056C300.809 21.8835 300.752 21.6969 300.636 21.543C300.522 21.389 300.369 21.2773 300.175 21.2064C299.98 21.1356 299.676 21.1002 299.262 21.1002H297.856V23.1192ZM302.517 20.9572C302.517 19.9599 302.795 19.1943 303.353 18.6589C303.909 18.1235 304.603 17.8551 305.434 17.8551C305.971 17.8551 306.46 17.975 306.902 18.2134C307.344 18.4531 307.694 18.8006 307.953 19.257C308.211 19.712 308.34 20.2556 308.34 20.885C308.34 21.7514 308.09 22.4571 307.591 23.002C307.04 23.6029 306.32 23.9039 305.428 23.9039C304.531 23.9039 303.809 23.596 303.261 22.9789C302.766 22.4203 302.517 21.7473 302.517 20.9572ZM303.346 20.9667C303.346 21.6887 303.548 22.2473 303.952 22.6451C304.354 23.0429 304.847 23.2418 305.423 23.2418C306.014 23.2418 306.51 23.0415 306.91 22.6397C307.311 22.2378 307.511 21.6465 307.511 20.8673C307.511 20.3646 307.408 19.915 307.202 19.5185C307.043 19.2161 306.805 18.9722 306.485 18.791C306.166 18.6085 305.817 18.5172 305.439 18.5172C304.831 18.5172 304.33 18.7161 303.936 19.1153C303.543 19.5145 303.346 20.1316 303.346 20.9667ZM309.347 23.8058V17.9532H311.64C312.181 17.9532 312.578 17.99 312.835 18.0649C313.186 18.1657 313.466 18.3524 313.675 18.6262C313.884 18.9 313.989 19.2365 313.989 19.6343C313.989 20.1602 313.818 20.5894 313.478 20.9203C313.138 21.2528 312.549 21.419 311.713 21.419H310.155V23.8058H309.347ZM310.155 20.7324H311.728C312.224 20.7324 312.587 20.6438 312.816 20.4667C313.046 20.2896 313.16 20.0226 313.16 19.6657C313.16 19.4341 313.103 19.2365 312.991 19.0717C312.877 18.9055 312.74 18.7924 312.582 18.7311C312.421 18.6698 312.131 18.6398 311.713 18.6398H310.155V20.7324ZM315.023 17.9532H315.749V22.6056L319.004 17.9532H319.81V23.8058H319.085V19.1466L315.825 23.8058H315.023V17.9532ZM322.684 23.8058V18.6398H320.684V17.9532H325.503V18.6398H323.492V23.8058H322.684ZM326.331 23.8058V17.9532H330.725V18.6398H327.14V20.4381H330.507V21.1247H327.14V23.1192H330.87V23.8058H326.331ZM332.422 17.9532H336.236V23.8058H335.427V18.6398H333.231V21.6547C333.231 22.2541 333.201 22.6982 333.143 22.9871C333.082 23.2759 332.956 23.5006 332.763 23.6628C332.567 23.8235 332.329 23.9039 332.044 23.9039C331.859 23.9039 331.644 23.8712 331.397 23.8058L331.533 23.1192C331.664 23.1737 331.777 23.2009 331.871 23.2009C332.049 23.2009 332.186 23.1369 332.281 23.0089C332.376 22.8822 332.422 22.5688 332.422 22.0716V17.9532ZM337.584 17.9532H338.393V20.4545H339.841C340.373 20.4545 340.798 20.5035 341.114 20.6016C341.43 20.701 341.684 20.885 341.876 21.1547C342.067 21.4244 342.164 21.7419 342.164 22.1056C342.164 22.5552 342.005 22.9516 341.686 23.2936C341.368 23.6355 340.771 23.8058 339.895 23.8058H337.584V17.9532ZM338.393 23.1437H339.864C340.363 23.1437 340.727 23.0633 340.959 22.9039C341.188 22.7432 341.304 22.4775 341.304 22.107C341.304 21.8631 341.235 21.6615 341.099 21.5048C340.962 21.3468 340.788 21.2433 340.577 21.1956C340.365 21.1479 339.995 21.1247 339.468 21.1247H338.393V23.1437ZM343.13 23.8058V17.9532H343.938V20.3646H347.098V17.9532H347.906V23.8058H347.098V21.0511H343.938V23.8058H343.13ZM349.293 17.9532H350.101V20.4545H351.55C352.082 20.4545 352.507 20.5035 352.823 20.6016C353.139 20.701 353.393 20.885 353.584 21.1547C353.776 21.4244 353.873 21.7419 353.873 22.1056C353.873 22.5552 353.714 22.9516 353.395 23.2936C353.077 23.6355 352.479 23.8058 351.604 23.8058H349.293V17.9532ZM350.101 23.1437H351.573C352.072 23.1437 352.436 23.0633 352.667 22.9039C352.897 22.7432 353.013 22.4775 353.013 22.107C353.013 21.8631 352.944 21.6615 352.807 21.5048C352.671 21.3468 352.497 21.2433 352.286 21.1956C352.073 21.1479 351.704 21.1247 351.177 21.1247H350.101V23.1437ZM355.002 23.8058V17.9532H355.811V23.8058H355.002ZM357.211 17.9532H357.936V22.6056L361.192 17.9532H361.998V23.8058H361.273V19.1466L358.012 23.8058H357.211V17.9532ZM360.434 16.5145H360.941C360.898 16.8592 360.765 17.1181 360.546 17.2925C360.327 17.4655 360.048 17.5527 359.712 17.5527C359.373 17.5527 359.095 17.4655 358.878 17.2925C358.66 17.1181 358.529 16.8592 358.486 16.5145H358.993C359.071 16.8742 359.304 17.054 359.691 17.054C359.907 17.054 360.076 17.0118 360.194 16.926C360.313 16.8415 360.392 16.7039 360.434 16.5145ZM367.866 18.6562V17.9532H368.623V18.6562C369.395 18.6956 370.006 18.9191 370.455 19.3278C370.906 19.7352 371.13 20.2433 371.13 20.8523C371.13 21.4626 370.907 21.9721 370.464 22.3808C370.018 22.7895 369.405 23.0143 368.623 23.0538V23.8058H367.866V23.0538C367.144 23.0266 366.543 22.8168 366.065 22.4203C365.587 22.0253 365.348 21.5021 365.348 20.8523C365.348 20.2038 365.587 19.682 366.065 19.2869C366.543 18.8932 367.144 18.6834 367.866 18.6562ZM368.623 19.3183V22.3917C369.118 22.3617 369.522 22.2228 369.833 21.9721C370.146 21.7201 370.301 21.3482 370.301 20.855C370.301 20.3904 370.153 20.0253 369.854 19.7583C369.555 19.4913 369.146 19.3455 368.623 19.3183ZM367.866 19.3183C367.362 19.3401 366.955 19.4831 366.644 19.7501C366.333 20.0158 366.177 20.3836 366.177 20.855C366.177 21.3264 366.333 21.6956 366.644 21.9626C366.955 22.2296 367.362 22.3727 367.866 22.3917V19.3183ZM371.907 20.9572C371.907 19.9599 372.185 19.1943 372.743 18.6589C373.299 18.1235 373.994 17.8551 374.824 17.8551C375.361 17.8551 375.85 17.975 376.292 18.2134C376.734 18.4531 377.085 18.8006 377.344 19.257C377.601 19.712 377.731 20.2556 377.731 20.885C377.731 21.7514 377.48 22.4571 376.981 23.002C376.43 23.6029 375.71 23.9039 374.819 23.9039C373.921 23.9039 373.199 23.596 372.652 22.9789C372.156 22.4203 371.907 21.7473 371.907 20.9572ZM372.736 20.9667C372.736 21.6887 372.938 22.2473 373.343 22.6451C373.745 23.0429 374.237 23.2418 374.814 23.2418C375.405 23.2418 375.9 23.0415 376.301 22.6397C376.701 22.2378 376.902 21.6465 376.902 20.8673C376.902 20.3646 376.798 19.915 376.593 19.5185C376.434 19.2161 376.195 18.9722 375.876 18.791C375.556 18.6085 375.208 18.5172 374.829 18.5172C374.222 18.5172 373.721 18.7161 373.327 19.1153C372.933 19.5145 372.736 20.1316 372.736 20.9667ZM378.738 23.8058V17.9532H379.546V20.3646H382.706V17.9532H383.514V23.8058H382.706V21.0511H379.546V23.8058H378.738ZM385.429 17.9532H389.129V23.1192H389.667V25.1709H388.952V23.8058H384.932V25.1709H384.217V23.1192H384.683C385.181 22.4108 385.429 20.9735 385.429 18.8087V17.9532ZM388.32 18.6398H386.207V18.9395C386.207 19.4327 386.162 20.1098 386.07 20.9694C385.98 21.8291 385.794 22.5457 385.512 23.1192H388.32V18.6398Z" fill="#0AA373"/>
<path fill-rule="evenodd" clip-rule="evenodd" d="M253.088 9.17609C255.828 16.352 251.362 20.9579 246.913 25.5691C242.774 30.2834 239.126 35.1821 246.461 44C243.721 36.8266 248.189 32.2199 252.633 27.6112C256.778 22.8855 260.424 17.994 253.088 9.17609Z" fill="#E62D37"/>
<path fill-rule="evenodd" clip-rule="evenodd" d="M246.461 0C249.204 7.17662 244.74 11.7801 240.289 16.3913C236.148 21.109 232.504 26.0068 239.841 34.8247C237.099 27.6443 241.565 23.0438 246.012 18.4316C250.154 13.7139 253.797 8.81764 246.461 0Z" fill="#0AA373"/>
<path fill-rule="evenodd" clip-rule="evenodd" d="M6.11264 9.82558C6.15153 9.8379 6.09849 9.89584 6.06785 10.0031C6.0372 10.1103 6.03956 10.2237 6.00066 10.2114C5.96176 10.1991 5.94644 10.1042 5.97709 9.99692C6.00773 9.89091 6.07374 9.81325 6.11264 9.82558ZM7.19349 13.9895C7.30546 14.1436 7.42097 14.2718 7.5353 14.3766C7.5742 14.4086 7.61074 14.4394 7.64374 14.469C8.28141 14.972 8.8955 14.739 9.11356 13.9341C9.14538 13.7997 9.14184 13.6012 9.11356 13.3744C8.92143 13.314 8.75995 13.1587 8.69512 12.943C8.64915 12.7901 8.64562 12.6213 8.70691 12.4906C8.77881 12.5177 8.85425 12.535 8.93204 12.5411C8.73874 11.8965 8.43817 11.2937 8.16825 11.269C7.74039 11.2296 6.7503 11.5673 6.4462 11.7917C6.49453 12.0826 6.71494 13.2832 7.19349 13.9895ZM9.67461 12.2342C9.75358 12.3057 9.81487 12.3994 9.84905 12.5116C9.94452 12.8296 9.7748 13.1686 9.47187 13.2684C9.16778 13.3683 8.84364 13.192 8.74816 12.874C8.71516 12.7618 8.71398 12.6484 8.73991 12.5424C8.83303 12.5781 8.93204 12.5954 9.03341 12.5941V12.5978C9.03341 12.7297 9.13595 12.837 9.26089 12.837C9.38583 12.837 9.48955 12.7297 9.48955 12.5978C9.48955 12.5473 9.47423 12.5005 9.44948 12.4622C9.53906 12.4018 9.61567 12.3242 9.67461 12.2354V12.2342ZM9.56263 3.7547C9.55792 3.88783 9.4813 3.99507 9.40587 4.07766C8.9344 4.73837 7.48226 5.59137 6.93653 7.40339C7.39622 5.37072 8.52539 4.41664 9.56263 3.7547ZM6.13739 21.4003C6.17746 21.7455 6.0207 22.0462 5.85804 22.2829C4.89034 24.1356 1.44742 26.7858 0.74139 31.6388C1.13743 26.2373 3.6987 23.4256 6.13857 21.4003H6.13739ZM21.7125 32.0838C21.8138 31.9199 21.6535 31.3972 21.5286 31.6524C20.7377 33.2672 18.2613 35.3726 15.8556 35.6105C19.1983 35.3529 21.2622 33.621 21.7125 32.0838ZM1.4981 19.9322C1.48042 19.8928 1.36727 19.6696 1.35548 19.645C1.19754 19.6659 0.825076 19.7313 0.332388 19.7005C0.739032 20.0407 1.22583 19.9864 1.4981 19.9322ZM2.35618 19.8607C2.32554 19.7781 2.22535 19.6314 2.19942 19.539C3.1235 19.3208 5.11194 18.7649 6.92475 17.2931C5.77907 18.543 3.99101 19.375 2.355 19.8619L2.35618 19.8607ZM11.3943 2.11649C11.0702 2.13498 10.6529 2.151 10.3441 2.19661C12.0673 6.47766 12.039 8.98613 10.5339 12.6952C12.6461 9.14391 12.2088 4.83451 11.3931 2.11772L11.3943 2.11649ZM16.5298 3.11988C16.4449 3.09029 16.2846 2.97812 16.1915 2.95716C16.2151 4.18613 16.188 6.84129 15.2639 9.38428C16.1456 7.73867 16.4791 5.30786 16.5298 3.11988ZM10.5044 1.25855C10.3594 1.27951 10.1225 1.29676 10.0188 1.31279C9.89148 1.03667 9.59328 0.51772 9.04283 0.048074C10.02 0.209553 10.2663 0.586749 10.5056 1.25855H10.5044ZM6.4627 7.65609L6.42145 7.82003C6.81749 7.79045 7.11923 7.86564 7.44337 8.14052C7.26067 7.83852 6.96836 7.64869 6.46152 7.65609H6.4627ZM7.55534 8.6077C7.55652 8.64838 7.58127 8.66687 7.60484 8.6792C7.75218 8.7963 8.20715 8.78644 8.37806 9.24869C8.23426 8.70015 7.88066 8.61633 7.55534 8.6077ZM8.35684 10.4481C7.85826 9.83297 7.1652 10.5048 6.7668 10.0043C6.59825 9.7923 6.64304 9.49276 6.87524 9.33867C7.10744 9.18459 7.46576 9.21787 7.4799 9.58521C7.20645 9.50385 7.13102 9.91063 7.63313 9.88475C7.68617 9.88228 7.784 9.88844 7.85001 9.9057C7.39858 9.66656 7.82526 9.21541 8.01974 9.57781C7.80758 9.63205 7.86887 9.82188 8.00442 9.9094C8.17533 10.0191 8.3038 10.1818 8.35802 10.4493L8.35684 10.4481ZM6.57468 11.7584C6.6454 11.7978 6.68076 11.8706 6.70315 11.9371C6.92003 12.392 6.94714 13.4656 7.76514 14.278C6.80098 13.4545 6.62183 12.5399 6.57468 11.7584ZM10.3276 11.7954C9.4153 10.7562 8.85778 9.36949 8.85778 7.84715C8.85778 6.32481 9.3823 5.02065 10.2474 3.9926C10.1732 3.77442 10.093 3.55747 10.0176 3.37257C8.38749 4.20955 7.11098 5.68382 6.4851 7.48475L6.47803 7.5057L6.4627 7.55008C6.44738 7.59199 6.4297 7.61664 6.3908 7.62034C6.33423 7.62527 6.31065 7.64499 6.27529 7.76333C6.23993 7.88166 6.16921 8.18983 6.15743 8.25639C6.14564 8.32296 6.1586 8.39322 6.23168 8.39199C6.214 8.47581 6.1975 8.55963 6.18218 8.64468C6.20339 8.62619 6.22461 8.61633 6.24229 8.62003C6.3083 8.63236 6.32716 8.80246 6.30122 8.99846C6.27529 9.19322 6.21636 9.33991 6.14917 9.32758C6.13032 9.32388 6.11146 9.30786 6.09496 9.28074C6.08317 9.41263 6.07374 9.54576 6.06785 9.68012C6.10438 9.64191 6.14328 9.61972 6.181 9.61972C6.31183 9.61602 6.3967 9.86872 6.40259 10.1732C6.40966 10.4777 6.33659 10.7193 6.20575 10.7217C6.16803 10.7217 6.12678 10.7032 6.08906 10.6687C6.09496 10.7316 6.10085 10.7945 6.10792 10.8573C6.46506 10.8721 6.50042 10.4703 6.94125 10.4296C7.08387 10.416 7.23945 10.49 7.31018 10.5775C7.39033 10.6761 7.45633 10.8129 7.27599 11.0163C7.32668 10.9128 7.25949 10.6675 6.99429 10.7414C6.7727 10.8031 6.73262 11.02 6.65954 11.2099C6.57821 11.4219 6.40731 11.4773 6.20339 11.4934C6.22579 11.608 6.25054 11.7202 6.27765 11.8324C6.32951 11.7978 6.38137 11.7621 6.43324 11.7276C6.93418 11.4145 7.75218 11.1606 8.8401 11.0545C8.68452 11.0866 8.61144 11.1186 8.49121 11.1606C8.72223 11.3701 8.94736 11.9026 9.07819 12.4499C9.11945 12.3932 9.18546 12.3575 9.25853 12.3575C9.321 12.3575 9.3764 12.3834 9.41766 12.4253C9.49781 12.3784 9.58503 12.3069 9.67461 12.1726C9.78422 12.2712 9.84552 12.4092 9.88795 12.551C9.89266 12.5658 10.1484 12.4918 10.3264 11.7966L10.3276 11.7954ZM1.43563 19.4971C0.965339 19.5587 0.485616 19.5895 0 19.5895C0.444362 19.9704 0.934693 20.2958 1.46156 20.5559C1.63129 20.5313 1.80102 20.5029 1.96957 20.4733C1.77745 20.1578 1.59947 19.8324 1.43681 19.4971H1.43563ZM12.0567 1.42866C11.2741 0.567026 10.1755 0.0234206 8.95561 0C9.3434 0.435131 9.6805 0.918336 9.95867 1.44099C10.3205 1.38182 10.6847 1.35347 11.0478 1.35347C11.1055 1.35347 11.1633 1.35347 11.221 1.35593C11.5039 1.36333 11.7821 1.38798 12.0555 1.42866H12.0567ZM15.8662 11.9926C16.8893 15.2875 8.0162 21.526 8.0162 27.6869C8.0162 31.7867 11.1939 35.11 15.1142 35.11C19.0345 35.11 22.2122 31.7867 22.2122 27.6869C25.1825 35.0965 19.8938 44 11.6996 44C2.00494 44 -3.26966 32.1492 3.27909 23.682C6.40377 19.6413 14.262 15.6129 15.865 11.9938L15.8662 11.9926ZM9.94099 1.97103C13.6915 9.03914 9.664 18.0622 1.90239 19.4243C2.07919 19.751 2.27014 20.069 2.47405 20.376C10.3087 18.6354 16.307 11.7005 17.019 3.18028C14.8514 1.98336 12.3573 1.56302 9.94099 1.9698V1.97103Z" fill="#D0AB48"/>
<path d="M94.8139 17.6993H91.9396V43.568H94.8139V17.6993Z" fill="black"/>
<path fill-rule="evenodd" clip-rule="evenodd" d="M83.3167 24.3799L87.542 43.568H90.4848L84.789 17.6993H81.8462L76.1505 43.568H79.0933L83.3186 24.3799H83.3167Z" fill="black"/>
<path fill-rule="evenodd" clip-rule="evenodd" d="M64.6572 20.5736H66.0943C69.6657 20.5736 72.5615 23.4694 72.5615 27.0408C72.5615 30.6121 69.6657 33.508 66.0943 33.508V36.3823C66.7052 36.3823 67.3024 36.3235 67.88 36.2119L72.724 43.568H76.1505L70.6407 35.2016C73.5953 33.553 75.4358 30.4418 75.4358 27.0408C75.4358 21.8815 71.2536 17.6993 66.0943 17.6993C64.6572 17.6993 63.22 17.6993 61.7829 17.6993V43.568H64.6572V20.5736Z" fill="black"/>
<path fill-rule="evenodd" clip-rule="evenodd" d="M136.527 17.6993H133.402V17.7012H122.153V20.5736H132.15L122.153 43.57H125.278V43.568H136.525V40.6957H126.527L136.527 17.6993Z" fill="black"/>
<path fill-rule="evenodd" clip-rule="evenodd" d="M117.808 36.3823C117.808 37.5727 117.325 38.6516 116.545 39.4308C115.766 40.2101 114.687 40.6937 113.497 40.6937C112.306 40.6937 111.228 40.2101 110.448 39.4308C109.669 38.6516 109.185 37.5727 109.185 36.3823V17.6993H106.311V36.3823C106.311 38.3657 107.116 40.1631 108.416 41.4632C109.716 42.7633 111.513 43.568 113.497 43.568C115.48 43.568 117.278 42.7633 118.578 41.4632C119.878 40.1631 120.683 38.3657 120.683 36.3823V17.6993H117.808V36.3823Z" fill="black"/>
<path fill-rule="evenodd" clip-rule="evenodd" d="M53.154 24.3799L57.3794 43.568H60.3222L54.6264 17.6993H51.6836L45.9879 43.568H48.9307L53.156 24.3799H53.154Z" fill="black"/>
<path fill-rule="evenodd" clip-rule="evenodd" d="M35.9082 30.6395L42.7455 43.57H45.982L39.1448 30.6337L45.982 17.6993H42.7455L35.9082 30.6297V17.6993H33.0476V43.57H35.9082V30.6395Z" fill="black"/>
<path fill-rule="evenodd" clip-rule="evenodd" d="M101.753 17.6993L94.8276 30.6337L101.753 43.57H104.999L98.0739 30.6337L104.999 17.6993H101.753Z" fill="black"/>
<path fill-rule="evenodd" clip-rule="evenodd" d="M202.505 36.2567H191.259V39.0722H201.256L199.378 43.3014H202.503L205.63 36.2567H202.505Z" fill="black"/>
<path fill-rule="evenodd" clip-rule="evenodd" d="M201.979 17.4327H198.854L191.259 34.5454H194.384H205.63V31.7298H195.633L201.979 17.4327Z" fill="black"/>
<path fill-rule="evenodd" clip-rule="evenodd" d="M184.181 31.4479H181.056L175.857 43.1605H178.98H190.229V40.3449H180.231L184.181 31.4479Z" fill="black"/>
<path fill-rule="evenodd" clip-rule="evenodd" d="M166.678 17.4327C164.695 17.4327 162.898 18.2374 161.597 19.5375C160.297 20.8376 159.493 22.635 159.493 24.6184V36.1157C159.493 38.0991 160.297 39.8965 161.597 41.1966C162.898 42.4967 164.695 43.3014 166.678 43.3014C168.662 43.3014 170.459 42.4967 171.759 41.1966C173.059 39.8965 173.864 38.0991 173.864 36.1157V24.6184C173.864 22.635 173.059 20.8376 171.759 19.5375C170.459 18.2374 168.662 17.4327 166.678 17.4327ZM170.99 27.8863V36.1157C170.99 37.3061 170.506 38.385 169.727 39.1642C168.948 39.9435 167.869 40.4271 166.678 40.4271C165.488 40.4271 164.409 39.9435 163.63 39.1642C162.851 38.385 162.367 37.3061 162.367 36.1157V24.6184C162.367 23.428 162.851 22.3492 163.63 21.5699C164.409 20.7906 165.488 20.307 166.678 20.307C167.869 20.307 168.948 20.7906 169.727 21.5699C170.506 22.3492 170.99 23.428 170.99 24.6184V27.8863Z" fill="black"/>
<path fill-rule="evenodd" clip-rule="evenodd" d="M186.54 24.1858V31.6437H189.414V24.1858C189.414 22.2023 188.61 20.4049 187.31 19.1048C186.009 17.8047 184.212 17 182.229 17C180.245 17 178.448 17.8047 177.148 19.1048C175.848 20.4049 175.043 22.2023 175.043 24.1858V24.2034H177.917V24.1858C177.917 22.9953 178.401 21.9165 179.18 21.1372C179.959 20.3579 181.038 19.8743 182.229 19.8743C183.419 19.8743 184.498 20.3579 185.277 21.1372C186.056 21.9165 186.54 22.9953 186.54 24.1858Z" fill="black"/>
<path fill-rule="evenodd" clip-rule="evenodd" d="M152.657 31.4479H149.532L144.334 43.1605H147.457H158.705V40.3449H148.708L152.657 31.4479Z" fill="black"/>
<path fill-rule="evenodd" clip-rule="evenodd" d="M155.017 24.1858V31.6437H157.891V24.1858C157.891 22.2023 157.086 20.4049 155.786 19.1048C154.486 17.8047 152.689 17 150.705 17C148.722 17 146.924 17.8047 145.624 19.1048C144.324 20.4049 143.519 22.2023 143.519 24.1858V24.2034H146.394V24.1858C146.394 22.9953 146.877 21.9165 147.657 21.1372C148.436 20.3579 149.515 19.8743 150.705 19.8743C151.896 19.8743 152.974 20.3579 153.754 21.1372C154.533 21.9165 155.017 22.9953 155.017 24.1858Z" fill="black"/>
</svg>
