<svg width="149" height="38" viewBox="0 0 149 38" fill="none" xmlns="http://www.w3.org/2000/svg">
<path d="M89.1397 0.0848389H85.0294V37.0777H89.1397V0.0848389Z" fill="black"/>
<path fill-rule="evenodd" clip-rule="evenodd" d="M72.6985 9.63825L78.7407 37.0777H82.9491L74.804 0.0848389H70.5957L62.4507 37.0777H66.659L72.7013 9.63825H72.6985Z" fill="black"/>
<path fill-rule="evenodd" clip-rule="evenodd" d="M46.015 4.19516H48.0702C53.1773 4.19516 57.3184 8.33628 57.3184 13.4434C57.3184 18.5505 53.1773 22.6916 48.0702 22.6916V26.8019C48.9437 26.8019 49.7977 26.7179 50.6237 26.5583L57.5508 37.0777H62.4507L54.5716 25.1135C58.7967 22.756 61.4287 18.3069 61.4287 13.4434C61.4287 6.06552 55.448 0.0848389 48.0702 0.0848389C46.015 0.0848389 43.9598 0.0848389 41.9047 0.0848389V37.0777H46.015V4.19516Z" fill="black"/>
<path fill-rule="evenodd" clip-rule="evenodd" d="M148.79 0.0848389H144.321V0.0876394H128.235V4.19516H142.532L128.235 37.0805H132.704V37.0777H148.787V32.9702H134.49L148.79 0.0848389Z" fill="black"/>
<path fill-rule="evenodd" clip-rule="evenodd" d="M122.022 26.8019C122.022 28.5043 121.331 30.047 120.216 31.1614C119.102 32.2758 117.559 32.9674 115.857 32.9674C114.154 32.9674 112.612 32.2758 111.497 31.1614C110.383 30.047 109.691 28.5043 109.691 26.8019V0.0848389H105.581V26.8019C105.581 29.6383 106.732 32.2086 108.591 34.0678C110.45 35.9269 113.02 37.0777 115.857 37.0777C118.693 37.0777 121.263 35.9269 123.123 34.0678C124.982 32.2086 126.133 29.6383 126.133 26.8019V0.0848389H122.022V26.8019Z" fill="black"/>
<path fill-rule="evenodd" clip-rule="evenodd" d="M29.5653 9.63825L35.6076 37.0777H39.8159L31.6709 0.0848389H27.4626L19.3175 37.0777H23.5258L29.5681 9.63825H29.5653Z" fill="black"/>
<path fill-rule="evenodd" clip-rule="evenodd" d="M4.90341 18.5897L14.6808 37.0805H19.3091L9.53172 18.5813L19.3091 0.0848389H14.6808L4.90341 18.5757V0.0848389H0.812691V37.0805H4.90341V18.5897Z" fill="black"/>
<path fill-rule="evenodd" clip-rule="evenodd" d="M99.0627 0.0848389L89.1593 18.5813L99.0627 37.0805H103.705L93.8016 18.5813L103.705 0.0848389H99.0627Z" fill="black"/>
</svg>
