<svg width="55" height="100" viewBox="0 0 55 100" fill="none" xmlns="http://www.w3.org/2000/svg">
<path fill-rule="evenodd" clip-rule="evenodd" d="M14.5205 22.3184C14.6129 22.3464 14.4869 22.478 14.4141 22.7215C14.3413 22.9651 14.3469 23.2227 14.2545 23.1947C14.1621 23.1667 14.1257 22.9511 14.1985 22.7075C14.2713 22.4668 14.4281 22.2904 14.5205 22.3184ZM17.0881 31.7766C17.3541 32.1266 17.6284 32.4178 17.9 32.6557C17.9924 32.7285 18.0792 32.7985 18.1576 32.8657C19.6724 34.0081 21.1312 33.4789 21.6492 31.6506C21.7248 31.3454 21.7164 30.8946 21.6492 30.3794C21.1928 30.2422 20.8092 29.8894 20.6552 29.3994C20.546 29.0522 20.5376 28.6686 20.6832 28.3718C20.854 28.4334 21.0332 28.4726 21.218 28.4866C20.7588 27.0223 20.0448 25.6531 19.4036 25.5971C18.3872 25.5075 16.0353 26.2747 15.3129 26.7843C15.4277 27.4451 15.9513 30.1722 17.0881 31.7766ZM22.9819 27.7894C23.1695 27.9518 23.3151 28.1646 23.3963 28.4194C23.6231 29.1418 23.2199 29.9118 22.5004 30.1386C21.778 30.3654 21.008 29.965 20.7812 29.2426C20.7028 28.9878 20.7 28.7302 20.7616 28.4894C20.9828 28.5706 21.218 28.6098 21.4588 28.607V28.6154C21.4588 28.915 21.7024 29.1586 21.9992 29.1586C22.296 29.1586 22.5423 28.915 22.5423 28.6154C22.5423 28.5006 22.5059 28.3942 22.4472 28.3074C22.6599 28.1702 22.8419 27.9938 22.9819 27.7922V27.7894ZM22.7159 8.52863C22.7047 8.83102 22.5228 9.07462 22.3436 9.26222C21.2236 10.763 17.774 12.7005 16.4777 16.8165C17.5696 12.1994 20.252 10.0322 22.7159 8.52863ZM14.5793 48.6098C14.6745 49.3938 14.3021 50.077 13.9157 50.6146C11.617 54.8229 3.43833 60.8428 1.76116 71.8662C2.70195 59.5968 8.78622 53.2101 14.5821 48.6098H14.5793ZM51.5778 72.8769C51.8186 72.5046 51.4378 71.3174 51.141 71.897C49.2622 75.5649 43.3795 80.3472 37.6648 80.8876C45.6055 80.3024 50.5082 76.3685 51.5778 72.8769ZM3.55873 45.2751C3.51673 45.1855 3.24794 44.6787 3.21994 44.6227C2.84474 44.6703 1.95996 44.8187 0.789584 44.7487C1.75556 45.5215 2.91194 45.3983 3.55873 45.2751ZM5.59709 45.1127C5.52429 44.9251 5.28629 44.5919 5.2247 44.3819C7.41985 43.8863 12.1434 42.6235 16.4497 39.2804C13.7281 42.1196 9.48061 44.0095 5.59429 45.1155L5.59709 45.1127ZM27.0671 4.8075C26.2971 4.8495 25.3059 4.8859 24.5723 4.9895C28.6658 14.7137 28.5986 20.4116 25.0231 28.8366C30.0406 20.77 29.0018 10.9814 27.0643 4.8103L27.0671 4.8075ZM39.2664 7.08666C39.0648 7.01946 38.684 6.76467 38.4628 6.71707C38.5188 9.50861 38.4544 15.5397 36.2593 21.316C38.3536 17.578 39.146 12.0566 39.2664 7.08666ZM24.9531 2.85874C24.6087 2.90634 24.0459 2.94554 23.7995 2.98194C23.4971 2.35475 22.7887 1.17598 21.4812 0.109198C23.8023 0.475991 24.3875 1.33277 24.9559 2.85874H24.9531ZM15.3521 17.3905L15.2541 17.7628C16.1949 17.6956 16.9117 17.8664 17.6816 18.4908C17.2477 17.8048 16.5533 17.3737 15.3493 17.3905H15.3521ZM17.9476 19.552C17.9504 19.6444 18.0092 19.6864 18.0652 19.7144C18.4152 19.9804 19.496 19.958 19.902 21.008C19.5604 19.762 18.7204 19.5716 17.9476 19.552ZM19.8516 23.7323C18.6672 22.3352 17.0209 23.8611 16.0745 22.7243C15.6741 22.2428 15.7805 21.5624 16.3321 21.2124C16.8837 20.8624 17.7348 20.938 17.7684 21.7724C17.1189 21.5876 16.9397 22.5116 18.1324 22.4528C18.2584 22.4472 18.4908 22.4612 18.6476 22.5004C17.5752 21.9572 18.5888 20.9324 19.0508 21.7556C18.5468 21.8788 18.6924 22.31 19.0144 22.5088C19.4204 22.7579 19.7256 23.1275 19.8544 23.7351L19.8516 23.7323ZM15.6181 26.7087C15.7861 26.7983 15.8701 26.9635 15.9233 27.1147C16.4385 28.1478 16.5029 30.5866 18.446 32.4318C16.1557 30.5614 15.7301 28.4838 15.6181 26.7087ZM24.5331 26.7927C22.366 24.4323 21.0416 21.2824 21.0416 17.8244C21.0416 14.3665 22.2876 11.4042 24.3427 9.06902C24.1663 8.57343 23.9759 8.08064 23.7967 7.66065C19.9244 9.56181 16.8921 12.9105 15.4053 17.0013L15.3885 17.0489L15.3521 17.1497C15.3157 17.2449 15.2737 17.3009 15.1813 17.3093C15.0469 17.3205 14.9909 17.3653 14.9069 17.634C14.8229 17.9028 14.6549 18.6028 14.6269 18.754C14.5989 18.9052 14.6297 19.0648 14.8033 19.062C14.7613 19.2524 14.7221 19.4428 14.6857 19.636C14.7361 19.594 14.7865 19.5716 14.8285 19.58C14.9853 19.608 15.0301 19.9944 14.9685 20.4396C14.9069 20.882 14.7669 21.2152 14.6073 21.1872C14.5625 21.1788 14.5177 21.1424 14.4785 21.0808C14.4505 21.3804 14.4281 21.6828 14.4141 21.988C14.5009 21.9012 14.5933 21.8508 14.6829 21.8508C14.9937 21.8424 15.1953 22.4164 15.2093 23.1079C15.2261 23.7995 15.0525 24.3483 14.7417 24.3539C14.6521 24.3539 14.5541 24.3119 14.4645 24.2335C14.4785 24.3763 14.4925 24.5191 14.5093 24.6619C15.3577 24.6955 15.4417 23.7827 16.4889 23.6903C16.8277 23.6595 17.1973 23.8275 17.3653 24.0263C17.5556 24.2503 17.7124 24.5611 17.2841 25.0231C17.4045 24.7879 17.2449 24.2307 16.6149 24.3987C16.0885 24.5387 15.9933 25.0315 15.8197 25.4627C15.6265 25.9443 15.2205 26.0703 14.7361 26.1067C14.7893 26.3671 14.8481 26.6219 14.9125 26.8767C15.0357 26.7983 15.1589 26.7171 15.2821 26.6387C16.4721 25.9275 18.4152 25.3507 20.9996 25.1099C20.63 25.1827 20.4564 25.2555 20.1708 25.3507C20.7196 25.8267 21.2544 27.0363 21.5652 28.2794C21.6632 28.1506 21.82 28.0694 21.9936 28.0694C22.142 28.0694 22.2736 28.1282 22.3716 28.2234C22.5619 28.117 22.7691 27.9546 22.9819 27.6494C23.2423 27.8734 23.3879 28.187 23.4887 28.509C23.4999 28.5426 24.1075 28.3746 24.5303 26.7955L24.5331 26.7927ZM3.41033 44.2867C2.29315 44.4267 1.15358 44.4967 0 44.4967C1.05558 45.3619 2.22036 46.1011 3.47193 46.6919C3.87512 46.6359 4.27831 46.5715 4.67871 46.5043C4.22232 45.7875 3.79952 45.0483 3.41313 44.2867H3.41033ZM28.6406 3.24514C26.7815 1.28797 24.1719 0.0531989 21.274 0C22.1952 0.98838 22.9959 2.08596 23.6567 3.27313C24.5163 3.13874 25.3815 3.07434 26.2439 3.07434C26.3811 3.07434 26.5183 3.07434 26.6555 3.07994C27.3275 3.09674 27.9882 3.15274 28.6378 3.24514H28.6406ZM37.69 27.2407C40.1204 34.7249 19.0424 48.8954 19.0424 62.8895C19.0424 72.2022 26.5911 79.7508 35.9037 79.7508C45.2163 79.7508 52.7649 72.2022 52.7649 62.8895C59.8208 79.72 47.2575 99.944 27.7922 99.944C4.76271 99.944 -7.76705 73.0253 7.78944 53.7925C15.2121 44.6143 33.8793 35.4641 37.6872 27.2435L37.69 27.2407ZM23.6147 4.47711C32.5241 20.532 22.9567 41.0276 4.51911 44.1215C4.9391 44.8635 5.39269 45.5859 5.87708 46.2831C24.4883 42.3296 38.7372 26.5771 40.4284 7.22386C35.2793 4.50511 29.3546 3.55033 23.6147 4.47431V4.47711Z" fill="#D0AB48"/>
</svg>
