<svg width="90" height="38" viewBox="0 0 90 38" fill="none" xmlns="http://www.w3.org/2000/svg">
<path fill-rule="evenodd" clip-rule="evenodd" d="M84.9291 27.9258H68.8462V31.9521H83.1427L80.4575 38H84.9262L89.3978 27.9258H84.9291Z" fill="black"/>
<path fill-rule="evenodd" clip-rule="evenodd" d="M84.1759 1.00714H79.7071L68.8462 25.4786H73.3149H89.3978V21.4523H75.1012L84.1759 1.00714Z" fill="black"/>
<path fill-rule="evenodd" clip-rule="evenodd" d="M58.7244 21.0491H54.2557L46.8218 37.7984H51.2877H67.3734V33.7721H53.0769L58.7244 21.0491Z" fill="black"/>
<path fill-rule="evenodd" clip-rule="evenodd" d="M33.6957 1.00714C30.8593 1.00714 28.289 2.15792 26.4298 4.01708C24.5706 5.87624 23.4199 8.4466 23.4199 11.2829V27.7242C23.4199 30.5606 24.5706 33.1309 26.4298 34.9901C28.289 36.8492 30.8593 38 33.6957 38C36.532 38 39.1023 36.8492 40.9615 34.9901C42.8207 33.1309 43.9715 30.5606 43.9715 27.7242V11.2829C43.9715 8.4466 42.8207 5.87624 40.9615 4.01708C39.1023 2.15792 36.532 1.00714 33.6957 1.00714ZM39.8611 15.956V27.7242C39.8611 29.4266 39.1695 30.9693 38.0552 32.0837C36.9408 33.1981 35.398 33.8897 33.6957 33.8897C31.9933 33.8897 30.4505 33.1981 29.3361 32.0837C28.2218 30.9693 27.5302 29.4266 27.5302 27.7242V11.2829C27.5302 9.58057 28.2218 8.0378 29.3361 6.92342C30.4505 5.80905 31.9933 5.11746 33.6957 5.11746C35.398 5.11746 36.9408 5.80905 38.0552 6.92342C39.1695 8.0378 39.8611 9.58057 39.8611 11.2829V15.956Z" fill="black"/>
<path fill-rule="evenodd" clip-rule="evenodd" d="M62.0983 10.6642V21.3291H66.2086V10.6642C66.2086 7.82781 65.0578 5.25747 63.1987 3.39831C61.3395 1.53914 58.7692 0.388367 55.9328 0.388367C53.0965 0.388367 50.5261 1.53914 48.667 3.39831C46.8078 5.25747 45.657 7.82781 45.657 10.6642V10.6894H49.7673V10.6642C49.7673 8.96179 50.4589 7.41902 51.5733 6.30465C52.6877 5.19027 54.2305 4.49868 55.9328 4.49868C57.6352 4.49868 59.178 5.19027 60.2923 6.30465C61.4067 7.41902 62.0983 8.96179 62.0983 10.6642Z" fill="black"/>
<path fill-rule="evenodd" clip-rule="evenodd" d="M13.6453 21.0491H9.17654L1.74269 37.7984H6.2086H22.2943V33.7721H7.99777L13.6453 21.0491Z" fill="black"/>
<path fill-rule="evenodd" clip-rule="evenodd" d="M17.0192 10.6642V21.3291H21.1295V10.6642C21.1295 7.82781 19.9787 5.25747 18.1196 3.39831C16.2604 1.53914 13.69 0.388367 10.8537 0.388367C8.01736 0.388367 5.44701 1.53914 3.58785 3.39831C1.72869 5.25747 0.577911 7.82781 0.577911 10.6642V10.6894H4.68823V10.6642C4.68823 8.96179 5.37982 7.41902 6.4942 6.30465C7.60857 5.19027 9.15134 4.49868 10.8537 4.49868C12.5561 4.49868 14.0988 5.19027 15.2132 6.30465C16.3276 7.41902 17.0192 8.96179 17.0192 10.6642Z" fill="black"/>
</svg>
