<svg width="760" height="404" viewBox="0 0 760 404" fill="none" xmlns="http://www.w3.org/2000/svg">
<path d="M40.2891 235.428L0 217.467L2.70211 211.389C5.03008 206.154 8.96068 201.969 24.0892 204.68L29.6716 205.713C35.4459 206.943 36.6603 206.476 37.2423 205.167L37.2839 205.074C37.9282 203.624 37.5765 201.899 32.2078 199.506C25.952 196.717 24.3157 199.516 23.5105 200.95L10.6255 195.205L10.771 194.878C12.8288 190.25 18.2399 183.364 34.5329 190.628L37.1006 191.773C51.4329 198.162 53.2551 204.632 50.4282 210.99L50.262 211.364C47.3936 217.815 41.3951 218.221 29.3232 214.8C27.3986 214.222 25.339 213.696 23.6529 213.336C16.4314 211.461 14.9263 212.078 14.5937 212.826L44.4254 226.125L40.2891 235.428Z" fill="#1C1C1C"/>
<path d="M82.4812 211.836L84.5354 212.752C102.836 220.911 101.38 232.865 98.408 239.549L97.7845 240.952C94.8745 247.496 86.831 256.905 68.5306 248.747L66.4764 247.831C48.2693 239.714 49.7302 227.37 52.6402 220.826L53.2638 219.423C56.2569 212.692 64.2741 203.719 82.4812 211.836ZM84.8688 234.521L85.0974 234.007C86.3653 231.156 87.4795 225.379 79.2629 221.716C70.9997 218.032 67.5513 222.768 66.2834 225.62L66.0548 226.134C64.7245 229.126 63.7088 235.058 71.7853 238.659C79.8618 242.26 83.5385 237.513 84.8688 234.521Z" fill="#1C1C1C"/>
<path d="M104.222 241.469L120.795 248.858L116.638 258.207L100.065 250.818L104.222 241.469Z" fill="#1C1C1C"/>
<path d="M158.415 288.09L118.126 270.129L120.828 264.052C123.156 258.816 127.086 254.631 142.215 257.343L147.797 258.375C153.571 259.605 154.786 259.138 155.368 257.829L155.409 257.736C156.054 256.287 155.702 254.561 150.333 252.168C144.078 249.379 142.441 252.178 141.636 253.612L128.751 247.867L128.897 247.54C130.954 242.912 136.365 236.027 152.658 243.29L155.226 244.435C169.558 250.824 171.381 257.294 168.554 263.652L168.388 264.026C165.519 270.477 159.521 270.883 147.449 267.462C145.524 266.884 143.465 266.358 141.778 265.998C134.557 264.123 133.052 264.74 132.719 265.488L162.551 278.788L158.415 288.09Z" fill="#1C1C1C"/>
<path d="M180.594 273.164L172.05 269.355L175.709 261.128C183.131 264.437 186.338 264.019 189.838 260.425L199.362 264.671L183.897 299.451L171.386 293.873L180.594 273.164Z" fill="#1C1C1C"/>
<path d="M235.935 322.65L245.267 301.66L218.614 314.928L206.009 309.309L221.474 274.529L234.079 280.149L224.746 301.138L251.399 287.87L263.957 293.469L248.493 328.248L235.935 322.65Z" fill="#1C1C1C"/>
<path d="M327.498 341.681L326.875 343.084C323.716 350.189 315.455 358.829 297.248 350.712L295.147 349.775C279.927 342.99 278.061 333.476 279.757 326.39L274.808 324.184L268.947 337.367L256.342 331.747L271.806 296.968L284.411 302.588L278.965 314.835L284.054 317.104C288.354 311.459 296.539 307.266 311.151 313.781L313.252 314.717C331.413 322.813 330.699 334.482 327.498 341.681ZM313.938 336.7L314.167 336.186C315.664 332.82 316.383 327.428 308.027 323.702C299.623 319.956 296.103 324.1 294.606 327.465L294.377 327.98C292.881 331.345 292.218 336.987 300.481 340.671C308.838 344.397 312.442 340.066 313.938 336.7Z" fill="#1C1C1C"/>
<path d="M352.948 374.816L364.505 348.825L352.507 343.476C348.246 353.059 345.004 358.84 342.091 361.742C338.431 365.319 333.994 366.366 326.804 363.161L322.836 361.392L327.222 351.528L327.969 351.861C330.163 352.839 331.834 352.352 333.309 351.049C335.333 349.263 337.012 345.866 344.37 329.318L381.017 345.656L365.553 380.435L352.948 374.816Z" fill="#1C1C1C"/>
<path d="M408.674 386.552L401.391 383.306L385.79 389.457L370.851 382.797L388.544 375.842C382.346 371.79 380.258 366.547 382.836 360.75L383.044 360.283C385.912 353.832 393.038 351.015 402.748 355.344L431.833 368.31L416.369 403.09L403.81 397.491L408.674 386.552ZM412.665 377.577L415.326 371.594L401.367 365.371C398.379 364.039 396.811 364.796 396.063 366.479L396.022 366.572C395.211 368.396 395.765 370.043 398.706 371.354L412.665 377.577Z" fill="#1C1C1C"/>
<path d="M95.8313 79.8168L71.0069 68.7497L101.576 0L126.4 11.0671L114.567 37.6799L154.639 23.6564L183.893 36.6983L136.681 52.8533L155.631 106.477L124.163 92.4473L109.472 49.1382L95.8313 79.8168Z" fill="#64B572"/>
<path d="M224.619 104.569L224.442 76.3665L203.578 95.1885L224.619 104.569ZM224.772 137.3L224.668 123.856L189.138 108.017L179.183 116.976L154.359 105.909L216.674 51.3122L249.25 65.8352L251.165 149.067L224.772 137.3Z" fill="#64B572"/>
<path d="M306.228 112.274L301.01 124.01L326.388 135.324C332.94 138.245 335.732 135.946 337.047 132.989L337.129 132.804C338.444 129.847 338.159 126.509 331.606 123.588L306.228 112.274ZM342.01 149.928C350.212 155.356 355.469 162.682 350.703 173.401L345.978 184.028C344.375 187.632 344.292 188.813 344.486 190.117L344.281 190.579L318.718 179.183C318.606 178.69 318.812 177.232 319.962 174.644L322.551 168.823C326.495 159.952 324.6 156.007 314.818 151.646L293.039 141.936L283.466 163.467L258.549 152.359L289.118 83.609L344.581 108.335C369.682 119.526 368.926 130.925 364.941 139.888L364.653 140.535C360.298 150.33 350.512 151.947 342.01 149.928Z" fill="#64B572"/>
<path d="M418.92 191.191L418.744 162.989L397.879 181.811L418.92 191.191ZM419.073 223.923L418.969 210.479L383.44 194.639L373.485 203.599L348.66 192.532L410.975 137.935L443.551 152.458L445.466 235.689L419.073 223.923Z" fill="#64B572"/>
<path d="M477.675 250.048L452.85 238.981L483.42 170.231L508.244 181.298L496.411 207.911L536.483 193.888L565.737 206.93L518.525 223.085L537.475 276.708L506.006 262.679L491.316 219.37L477.675 250.048Z" fill="#64B572"/>
<path d="M586.007 299.562L583.146 298.287C544.018 280.843 551.737 256.271 557.777 242.687L572.363 209.883L597.095 220.909L582.591 253.529C579.098 261.383 577.748 271.632 593.344 278.585L593.713 278.749C609.125 285.62 615.643 277.675 619.135 269.821L633.639 237.201L658.371 248.227L643.785 281.031C637.745 294.615 623.659 316.348 586.007 299.562Z" fill="#64B572"/>
<path d="M717.664 357.039L641.53 323.097L648.473 307.48L703.584 290.971L664.086 273.363L672.468 254.512L747.864 288.124L740.961 303.649L684.139 319.284L726.128 338.003L717.664 357.039Z" fill="#64B572"/>
<path d="M29.9194 161.155L60.4885 92.4055L94.8182 107.71L95.9051 155.252L132.286 124.414L165.139 139.06L134.57 207.81L110.207 196.948L129.312 153.98L89.8118 187.856L74.1235 180.862L73.0189 128.883L53.9132 171.852L29.9194 161.155Z" fill="#64B572"/>
<path d="M212.19 209.751L212.013 181.548L191.149 200.37L212.19 209.751ZM212.343 242.482L212.239 229.038L176.709 213.199L166.754 222.158L141.93 211.091L204.245 156.494L236.821 171.017L238.736 254.249L212.343 242.482Z" fill="#64B572"/>
<path d="M293.799 217.456L288.581 229.192L313.959 240.506C320.511 243.427 323.303 241.128 324.618 238.171L324.7 237.986C326.015 235.029 325.73 231.691 319.177 228.77L293.799 217.456ZM329.581 255.11C337.783 260.538 343.04 267.864 338.274 278.583L333.549 289.21C331.946 292.814 331.863 293.995 332.057 295.299L331.852 295.761L306.289 284.365C306.177 283.872 306.383 282.414 307.533 279.826L310.122 274.005C314.066 265.134 312.171 261.189 302.389 256.828L280.61 247.118L271.037 268.649L246.12 257.541L276.689 188.791L332.152 213.517C357.253 224.708 356.497 236.107 352.512 245.07L352.224 245.717C347.869 255.512 338.083 257.128 329.581 255.11Z" fill="#64B572"/>
<path d="M369.177 312.401L344.352 301.334L374.921 232.584L399.746 243.651L387.913 270.264L427.985 256.241L457.239 269.283L410.026 285.438L428.977 339.061L397.508 325.032L382.818 281.722L369.177 312.401Z" fill="#64B572"/>
<path d="M465.944 273.163L534.511 303.732L527.115 320.365L483.372 300.863L479.469 309.642L521.827 328.526L514.226 345.621L471.868 326.737L467.677 336.162L512.066 355.951L504.588 372.769L435.375 341.913L465.944 273.163Z" fill="#64B572"/>
<path d="M542.46 389.653L564.606 339.847L537.106 327.587L545.529 308.643L625.354 344.231L616.931 363.174L589.431 350.914L567.285 400.72L542.46 389.653Z" fill="#64B572"/>
<path d="M453.062 124.274L446.505 121.351L449.313 115.037C455.009 117.577 457.471 117.255 460.156 114.498L467.465 117.756L455.597 144.447L445.995 140.167L453.062 124.274Z" fill="#1C1C1C"/>
<path d="M474.125 133.664L467.568 130.741L470.376 124.427C476.072 126.967 478.533 126.645 481.219 123.888L488.528 127.146L476.66 153.837L467.058 149.557L474.125 133.664Z" fill="#1C1C1C"/>
<path d="M495.834 152.8L492.277 160.8L482.245 156.327L485.803 148.327L495.834 152.8ZM501.035 141.104L497.477 149.104L487.446 144.632L491.003 136.632L501.035 141.104Z" fill="#1C1C1C"/>
<path d="M525.277 142.97L526.853 143.673C540.898 149.935 539.781 159.109 537.5 164.239L537.021 165.315C534.788 170.337 528.615 177.558 514.57 171.297L512.994 170.594C499.021 164.365 500.142 154.892 502.375 149.869L502.854 148.793C505.151 143.627 511.304 136.741 525.277 142.97ZM527.109 160.38L527.284 159.986C528.257 157.797 529.112 153.364 522.807 150.553C516.465 147.726 513.819 151.36 512.846 153.549L512.67 153.943C511.649 156.239 510.87 160.792 517.068 163.555C523.266 166.319 526.088 162.676 527.109 160.38Z" fill="#1C1C1C"/>
<path d="M563.799 160.144L565.375 160.847C579.42 167.108 578.303 176.282 576.022 181.412L575.543 182.489C573.31 187.511 567.137 194.732 553.092 188.471L551.516 187.768C537.543 181.539 538.664 172.066 540.897 167.043L541.376 165.967C543.673 160.801 549.826 153.915 563.799 160.144ZM565.631 177.554L565.806 177.159C566.779 174.971 567.635 170.538 561.329 167.726C554.987 164.899 552.341 168.534 551.368 170.722L551.192 171.117C550.171 173.413 549.392 177.966 555.59 180.729C561.788 183.492 564.61 179.85 565.631 177.554Z" fill="#1C1C1C"/>
<path d="M580.483 182.886L593.202 188.556L590.012 195.731L577.293 190.061L580.483 182.886Z" fill="#1C1C1C"/>
<path d="M622.073 218.665L591.154 204.88L593.227 200.216C595.014 196.198 598.03 192.987 609.641 195.068L613.925 195.86C618.356 196.804 619.288 196.446 619.735 195.441L619.767 195.369C620.261 194.257 619.991 192.933 615.871 191.096C611.07 188.956 609.814 191.104 609.197 192.205L599.308 187.796L599.42 187.545C600.999 183.993 605.152 178.709 617.656 184.283L619.626 185.162C630.625 190.065 632.024 195.031 629.854 199.91L629.727 200.197C627.525 205.147 622.922 205.459 613.657 202.834C612.18 202.39 610.6 201.986 609.306 201.71C603.764 200.271 602.609 200.745 602.353 201.319L625.247 211.525L622.073 218.665Z" fill="#1C1C1C"/>
<path d="M654.453 200.559L656.03 201.262C670.074 207.523 668.957 216.697 666.676 221.827L666.197 222.904C663.964 227.926 657.791 235.147 643.747 228.886L642.17 228.183C628.197 221.954 629.319 212.481 631.552 207.458L632.03 206.382C634.327 201.216 640.48 194.33 654.453 200.559ZM656.285 217.969L656.461 217.574C657.434 215.386 658.289 210.953 651.983 208.141C645.642 205.314 642.995 208.949 642.022 211.137L641.847 211.532C640.826 213.828 640.046 218.381 646.245 221.144C652.443 223.907 655.265 220.265 656.285 217.969Z" fill="#1C1C1C"/>
<path d="M678.438 234.207L674.881 242.207L664.849 237.735L668.406 229.734L678.438 234.207ZM683.638 222.512L680.081 230.512L670.049 226.039L673.606 218.039L683.638 222.512Z" fill="#1C1C1C"/>
<path d="M707.88 224.378L709.457 225.081C723.501 231.342 722.384 240.516 720.103 245.646L719.625 246.722C717.391 251.745 711.218 258.966 697.174 252.704L695.597 252.002C681.624 245.772 682.746 236.299 684.979 231.277L685.457 230.2C687.754 225.034 693.907 218.148 707.88 224.378ZM709.712 241.787L709.888 241.393C710.861 239.204 711.716 234.771 705.41 231.96C699.069 229.133 696.422 232.767 695.449 234.956L695.274 235.351C694.253 237.647 693.473 242.199 699.672 244.963C705.87 247.726 708.692 244.083 709.712 241.787Z" fill="#1C1C1C"/>
<path d="M746.402 241.551L747.979 242.254C762.023 248.516 760.906 257.69 758.625 262.82L758.147 263.896C755.913 268.918 749.74 276.139 735.696 269.878L734.119 269.175C720.147 262.946 721.268 253.473 723.501 248.45L723.979 247.374C726.277 242.208 732.429 235.322 746.402 241.551ZM748.234 258.961L748.41 258.567C749.383 256.378 750.238 251.945 743.932 249.134C737.591 246.307 734.944 249.941 733.971 252.13L733.796 252.524C732.775 254.82 731.995 259.373 738.194 262.136C744.392 264.9 747.214 261.257 748.234 258.961Z" fill="#1C1C1C"/>
</svg>
