<svg width="510" height="1482" viewBox="0 0 510 1482" fill="none" xmlns="http://www.w3.org/2000/svg">
<path fill-rule="evenodd" clip-rule="evenodd" d="M-94.9202 459.282C20.4321 510.64 72.4401 646.126 21.082 761.478L-113.675 701.481C-131.933 742.491 -180.246 761.342 -221.273 743.076L-281.271 877.832L-416.027 817.835C-434.286 858.845 -482.599 877.697 -523.626 859.43L-583.624 994.187C-468.271 1045.54 -416.263 1181.03 -467.621 1296.38L-602.378 1236.39C-584.119 1195.38 -602.437 1146.86 -643.464 1128.59L-583.467 993.835C-468.114 1045.19 -332.629 993.185 -281.271 877.832C-165.919 929.191 -30.4329 877.182 20.9252 761.83L-113.831 701.833C-95.5726 660.823 -113.89 612.305 -154.918 594.039L-94.9202 459.282L-229.677 399.285C-211.418 358.275 -229.736 309.757 -270.763 291.491L-210.766 156.734C-95.4133 208.092 40.0722 156.084 91.4304 40.7319L-43.3263 -19.2656C-61.585 21.7442 -109.897 40.5962 -150.925 22.3296L-210.922 157.086C-95.5701 208.444 -43.5621 343.93 -94.9202 459.282ZM-1024.4 296.001L-889.639 355.999C-871.38 314.989 -823.068 296.137 -782.04 314.404L-722.043 179.647L-587.286 239.645C-569.028 198.635 -520.715 179.783 -479.688 198.049L-419.69 63.2928C-535.042 11.9347 -587.051 -123.551 -535.692 -238.903L-400.936 -178.906C-419.194 -137.896 -400.877 -89.3782 -359.85 -71.1116L-419.847 63.645C-535.199 12.2869 -670.685 64.2949 -722.043 179.647C-837.387 128.271 -972.873 180.279 -1024.23 295.632L-889.474 355.629C-907.733 396.639 -889.416 445.157 -848.388 463.423L-908.386 598.18L-773.629 658.177C-791.888 699.187 -773.57 747.705 -732.543 765.971L-792.54 900.728C-907.893 849.37 -1043.38 901.378 -1094.74 1016.73L-959.98 1076.73C-941.721 1035.72 -893.409 1016.87 -852.381 1035.13L-792.384 900.376C-907.736 849.018 -959.744 713.532 -908.386 598.18C-1023.74 546.822 -1075.75 411.336 -1024.4 296.001ZM-815.297 389.098L-680.54 449.096C-662.281 408.086 -613.969 389.234 -572.941 407.501L-512.944 272.744L-378.187 332.742C-359.929 291.732 -311.616 272.88 -270.589 291.146L-210.591 156.39C-325.943 105.032 -377.951 -30.4539 -326.593 -145.806L-191.837 -85.8087C-210.095 -44.7988 -191.778 3.71872 -150.75 21.9853L-210.748 156.742C-326.1 105.384 -461.586 157.392 -512.944 272.744C-628.296 221.386 -763.782 273.394 -815.14 388.746L-680.383 448.744C-698.642 489.754 -680.324 538.271 -639.297 556.538L-699.294 691.294L-564.538 751.292C-582.797 792.302 -564.479 840.819 -523.452 859.086L-583.449 993.842C-698.801 942.484 -834.287 994.492 -885.645 1109.84L-750.888 1169.84C-732.63 1128.83 -684.317 1109.98 -643.29 1128.25L-583.292 993.49C-698.645 942.132 -750.653 806.647 -699.294 691.294C-814.647 639.936 -866.655 504.451 -815.297 389.098ZM-606.198 482.195L-471.441 542.193C-453.182 501.183 -404.87 482.331 -363.842 500.598L-303.845 365.841C-419.197 314.483 -554.683 366.491 -606.041 481.843L-471.284 541.841C-489.543 582.85 -471.225 631.368 -430.198 649.635L-490.195 784.391C-605.548 733.033 -657.556 597.548 -606.198 482.195ZM230.181 854.575L95.4244 794.578C113.683 753.568 95.3656 705.05 54.3382 686.784L114.336 552.027L-20.4209 492.029C-2.16219 451.02 -20.4798 402.502 -61.5073 384.235L-1.50973 249.479C113.843 300.837 249.328 248.829 300.686 133.477L165.93 73.4792C147.671 114.489 99.3584 133.341 58.331 115.074L-1.66653 249.831C113.686 301.189 165.694 436.675 114.336 552.027C229.688 603.385 281.696 738.871 230.338 854.223L95.5812 794.225C77.3225 835.235 29.0101 854.087 -12.0174 835.821L-72.0149 970.577L-206.772 910.58C-225.03 951.59 -273.343 970.441 -314.37 952.175L-374.368 1086.93C-259.015 1138.29 -207.007 1273.78 -258.366 1389.13L-393.122 1329.13C-374.863 1288.12 -393.181 1239.6 -434.208 1221.34L-374.211 1086.58C-258.859 1137.94 -123.373 1085.93 -72.0149 970.577C43.3374 1021.94 178.823 969.927 230.181 854.575ZM-187.999 668.389L-322.756 608.392C-304.497 567.382 -322.815 518.864 -363.842 500.598L-303.845 365.841C-188.493 417.199 -136.485 552.685 -187.843 668.037L-322.599 608.039C-340.858 649.049 -389.17 667.901 -430.198 649.635L-490.195 784.391C-374.843 835.749 -239.358 783.741 -187.999 668.389ZM-1303.67 923.263L-1168.91 983.261C-1150.66 942.251 -1102.34 923.399 -1061.32 941.666L-1001.32 806.909C-1116.67 755.551 -1168.68 620.065 -1117.32 504.713L-982.564 564.711C-1000.82 605.721 -982.505 654.238 -941.477 672.505L-1001.47 807.261C-1116.83 755.903 -1252.31 807.911 -1303.67 923.263ZM-49.1116 1481.83L-183.868 1421.83C-165.609 1380.82 -183.927 1332.3 -224.954 1314.04L-164.957 1179.28C-49.6047 1230.64 85.8809 1178.63 137.239 1063.28L2.48236 1003.28C-15.7764 1044.29 -64.0888 1063.14 -105.116 1044.88L-165.114 1179.63C-49.7615 1230.99 2.24658 1366.48 -49.1116 1481.83ZM-744.948 -331.648L-610.192 -271.65C-628.45 -230.64 -610.133 -182.123 -569.105 -163.856L-629.103 -29.0997C-744.455 -80.4579 -879.941 -28.4498 -931.299 86.9025L-796.542 146.9C-778.283 105.89 -729.971 87.0382 -688.944 105.305L-628.946 -29.4519C-744.29 -80.8276 -796.306 -216.296 -744.948 -331.648ZM509.611 226.918L374.854 166.92C356.596 207.93 308.283 226.782 267.256 208.516L207.258 343.272C322.61 394.63 374.618 530.116 323.26 645.468L188.504 585.471C206.762 544.461 188.445 495.943 147.417 477.677L207.415 342.92C322.767 394.278 458.253 342.27 509.611 226.918Z" fill="#CD3F3F"/>
</svg>
