<svg width="553" height="1138" viewBox="0 0 553 1138" fill="none" xmlns="http://www.w3.org/2000/svg">
<path opacity="0.5" fill-rule="evenodd" clip-rule="evenodd" d="M1163.67 153.565C1274.69 202.994 1324.75 333.391 1275.32 444.411L1145.62 386.667C1128.05 426.137 1081.55 444.28 1042.06 426.7L984.319 556.396L854.623 498.651C837.05 538.121 790.552 556.265 751.066 538.684L693.322 668.38C804.342 717.809 854.396 848.207 804.967 959.227L675.272 901.482C692.845 862.013 675.215 815.317 635.728 797.737L693.473 668.041C804.493 717.47 934.89 667.416 984.319 556.396C1095.34 605.825 1225.74 555.77 1275.17 444.75L1145.47 387.006C1163.04 347.536 1145.41 300.841 1105.93 283.26L1163.67 153.565L1033.98 95.8203C1051.55 56.3506 1033.92 9.65523 994.432 -7.92533L1052.18 -137.621C1163.2 -88.1917 1293.59 -138.247 1343.02 -249.267L1213.33 -307.011C1195.75 -267.541 1149.26 -249.397 1109.77 -266.978L1052.03 -137.282C1163.05 -87.8528 1213.1 42.5445 1163.67 153.565ZM269.103 -3.58394L398.799 54.1603C416.372 14.6906 462.87 -3.45335 502.357 14.1272L560.101 -115.568L689.796 -57.8242C707.369 -97.2938 753.867 -115.438 793.354 -97.8572L851.098 -227.553C740.078 -276.982 690.023 -407.379 739.453 -518.399L869.148 -460.655C851.575 -421.186 869.205 -374.49 908.692 -356.91L850.947 -227.214C739.927 -276.643 609.53 -226.588 560.101 -115.568C449.088 -165.015 318.691 -114.96 269.262 -3.93982L398.957 53.8044C381.384 93.2741 399.014 139.969 438.501 157.55L380.756 287.246L510.452 344.99C492.879 384.46 510.509 431.155 549.995 448.736L492.251 578.431C381.231 529.002 250.834 579.057 201.404 690.077L331.1 747.821C348.673 708.351 395.171 690.207 434.658 707.788L492.402 578.092C381.382 528.663 331.327 398.266 380.756 287.246C269.736 237.816 219.682 107.419 269.103 -3.58394ZM470.349 86.0166L600.045 143.761C617.618 104.291 664.116 86.1472 703.603 103.728L761.347 -25.9679L891.042 31.7763C908.615 -7.69332 955.113 -25.8373 994.6 -8.25674L1052.34 -137.952C941.324 -187.382 891.269 -317.779 940.699 -428.799L1070.39 -371.055C1052.82 -331.585 1070.45 -284.89 1109.94 -267.309L1052.19 -137.613C941.173 -187.043 810.776 -136.988 761.347 -25.9679C650.327 -75.3972 519.93 -25.3424 470.5 85.6776L600.196 143.422C582.623 182.891 600.253 229.587 639.739 247.167L581.995 376.863L711.691 434.607C694.118 474.077 711.747 520.772 751.234 538.353L693.49 668.049C582.469 618.619 452.072 668.674 402.643 779.694L532.339 837.438C549.912 797.969 596.41 779.825 635.896 797.405L693.64 667.71C582.62 618.28 532.566 487.883 581.995 376.863C470.975 327.434 420.92 197.037 470.349 86.0166ZM671.595 175.617L801.291 233.361C818.864 193.892 865.362 175.748 904.849 193.328L962.593 63.6326C851.573 14.2033 721.176 64.2581 671.746 175.278L801.442 233.022C783.869 272.492 801.499 319.187 840.985 336.768L783.241 466.464C672.221 417.034 622.166 286.637 671.595 175.617ZM1476.56 534.012L1346.87 476.267C1364.44 436.798 1346.81 390.102 1307.32 372.522L1365.07 242.826L1235.37 185.082C1252.95 145.612 1235.32 98.9168 1195.83 81.3362L1253.57 -48.3594C1364.59 1.06985 1494.99 -48.985 1544.42 -160.005L1414.72 -217.749C1397.15 -178.28 1350.65 -160.136 1311.17 -177.716L1253.42 -48.0205C1364.44 1.40879 1414.5 131.806 1365.07 242.826C1476.09 292.255 1526.14 422.653 1476.71 533.673L1347.02 475.928C1329.44 515.398 1282.95 533.542 1243.46 515.961L1185.72 645.657L1056.02 587.913C1038.45 627.383 991.949 645.527 952.463 627.946L894.719 757.642C1005.74 807.071 1055.79 937.468 1006.36 1048.49L876.669 990.744C894.242 951.274 876.612 904.579 837.125 886.998L894.87 757.303C1005.89 806.732 1136.29 756.677 1185.72 645.657C1296.74 695.086 1427.13 645.032 1476.56 534.012ZM1074.09 354.818L944.392 297.074C961.965 257.604 944.335 210.909 904.849 193.328L962.593 63.6326C1073.61 113.062 1123.67 243.459 1074.24 354.479L944.543 296.735C926.97 336.205 880.472 354.349 840.985 336.768L783.241 466.464C894.261 515.893 1024.66 465.838 1074.09 354.818ZM0.316843 600.12L130.013 657.865C147.586 618.395 194.084 600.251 233.57 617.831L291.314 488.136C180.294 438.707 130.239 308.309 179.669 197.289L309.364 255.034C291.791 294.503 309.421 341.199 348.908 358.779L291.163 488.475C180.143 439.046 49.7461 489.1 0.316843 600.12ZM1207.76 1137.71L1078.06 1079.96C1095.64 1040.49 1078.01 993.799 1038.52 976.218L1096.26 846.523C1207.28 895.952 1337.68 845.897 1387.11 734.877L1257.42 677.133C1239.84 716.603 1193.34 734.747 1153.86 717.166L1096.11 846.862C1207.13 896.291 1257.19 1026.69 1207.76 1137.71ZM538.056 -607.661L667.751 -549.917C650.178 -510.447 667.808 -463.752 707.295 -446.171L649.55 -316.476C538.53 -365.905 408.133 -315.85 358.704 -204.83L488.399 -147.086C505.972 -186.555 552.47 -204.699 591.957 -187.119L649.701 -316.814C538.689 -366.261 488.626 -496.641 538.056 -607.661ZM1745.5 -70.0731L1615.8 -127.817C1598.23 -88.3477 1551.73 -70.2037 1512.24 -87.7843L1454.5 41.9114C1565.52 91.3407 1615.58 221.738 1566.15 332.758L1436.45 275.014C1454.02 235.544 1436.39 188.849 1396.91 171.268L1454.65 41.5724C1565.67 91.0017 1696.07 40.9469 1745.5 -70.0731Z" fill="#EFEFEF"/>
</svg>
