<svg width="266" height="662" viewBox="0 0 266 662" fill="none" xmlns="http://www.w3.org/2000/svg">
<g clip-path="url(#clip0_66_172)">
<path fill-rule="evenodd" clip-rule="evenodd" d="M698.438 274.133C765.079 303.803 795.124 382.075 765.454 448.715L687.604 414.054C677.055 437.746 649.145 448.637 625.443 438.084L590.781 515.934L512.931 481.273C502.383 504.965 474.472 515.856 450.77 505.303L416.109 583.154C482.749 612.824 512.795 691.096 483.124 757.736L405.274 723.075C415.822 699.383 405.24 671.354 381.538 660.801L416.199 582.95C482.84 612.62 561.111 582.575 590.781 515.934C657.422 545.605 735.693 515.559 765.364 448.919L687.513 414.257C698.061 390.566 687.479 362.536 663.777 351.984L698.438 274.133L620.588 239.472C631.136 215.78 620.554 187.751 596.852 177.198L631.513 99.3475C698.153 129.018 776.425 98.9721 806.095 32.3317L728.245 -2.32954C717.696 21.3623 689.786 32.2533 666.084 21.7005L631.422 99.551C698.063 129.221 728.108 207.493 698.438 274.133ZM161.469 179.804L239.32 214.465C249.868 190.773 277.779 179.882 301.481 190.435L336.142 112.585L413.993 147.246C424.541 123.554 452.452 112.663 476.154 123.216L510.815 45.3654C444.174 15.6952 414.129 -62.5764 443.799 -129.217L521.649 -94.5555C511.101 -70.8636 521.683 -42.8344 545.386 -32.2816L510.724 45.5689C444.084 15.8987 365.812 45.9444 336.142 112.585C269.506 82.9044 191.235 112.95 161.564 179.59L239.415 214.252C228.867 237.943 239.449 265.973 263.151 276.525L228.49 354.376L306.34 389.037C295.792 412.729 306.374 440.758 330.076 451.311L295.415 529.161C228.775 499.491 150.503 529.537 120.833 596.177L198.683 630.839C209.232 607.147 237.142 596.256 260.844 606.809L295.505 528.958C228.865 499.288 198.819 421.016 228.49 354.376C161.849 324.706 131.804 246.434 161.469 179.804ZM282.268 233.587L360.119 268.248C370.667 244.556 398.578 233.665 422.28 244.218L456.941 166.368L534.792 201.029C545.34 177.337 573.251 166.446 596.953 176.999L631.614 99.1486C564.973 69.4784 534.928 -8.79317 564.598 -75.4335L642.448 -40.7723C631.9 -17.0804 642.482 10.9487 666.184 21.5016L631.523 99.3521C564.883 69.6819 486.611 99.7275 456.941 166.368C390.301 136.698 312.029 166.743 282.359 233.384L360.209 268.045C349.661 291.737 360.243 319.766 383.945 330.319L349.284 408.169L427.135 442.83C416.586 466.522 427.169 494.552 450.871 505.104L416.209 582.955C349.569 553.285 271.297 583.33 241.627 649.971L319.478 684.632C330.026 660.94 357.937 650.049 381.639 660.602L416.3 582.751C349.66 553.081 319.614 474.81 349.284 408.169C282.644 378.499 252.598 300.227 282.268 233.587ZM403.067 287.37L480.918 322.032C491.466 298.34 519.377 287.449 543.079 298.001L577.74 220.151C511.1 190.481 432.828 220.526 403.158 287.167L481.008 321.828C470.46 345.52 481.042 373.549 504.744 384.102L470.083 461.952C403.443 432.282 373.397 354.011 403.067 287.37ZM886.253 502.498L808.403 467.837C818.951 444.145 808.369 416.116 784.667 405.563L819.328 327.713L741.477 293.052C752.026 269.36 741.443 241.33 717.741 230.778L752.403 152.927C819.043 182.597 897.315 152.552 926.985 85.9114L849.134 51.2502C838.586 74.9421 810.675 85.833 786.973 75.2802L752.312 153.131C818.952 182.801 848.998 261.072 819.328 327.713C885.968 357.383 916.014 435.655 886.344 502.295L808.493 467.634C797.945 491.326 770.034 502.217 746.332 491.664L711.671 569.514L633.82 534.853C623.272 558.545 595.361 569.436 571.659 558.883L536.998 636.733C603.639 666.404 633.684 744.675 604.014 811.316L526.164 776.654C536.712 752.963 526.129 724.933 502.427 714.381L537.089 636.53C603.729 666.2 682.001 636.155 711.671 569.514C778.311 599.184 856.583 569.139 886.253 502.498ZM644.665 394.937L566.815 360.275C577.363 336.583 566.781 308.554 543.079 298.001L577.74 220.151C644.38 249.821 674.426 328.093 644.756 394.733L566.905 360.072C556.357 383.764 528.446 394.655 504.744 384.102L470.083 461.952C536.723 491.623 614.995 461.577 644.665 394.937ZM0.128784 542.181L77.9792 576.842C88.5275 553.15 116.438 542.259 140.14 552.812L174.802 474.961C108.161 445.291 78.1155 367.019 107.786 300.379L185.636 335.04C175.088 358.732 185.67 386.761 209.372 397.314L174.711 475.165C108.071 445.495 29.799 475.54 0.128784 542.181ZM724.902 864.871L647.052 830.209C657.6 806.517 647.018 778.488 623.316 767.935L657.977 690.085C724.618 719.755 802.889 689.709 832.559 623.069L754.709 588.408C744.161 612.1 716.25 622.991 692.548 612.438L657.887 690.288C724.527 719.959 754.573 798.23 724.902 864.871ZM322.909 -182.797L400.76 -148.135C390.212 -124.443 400.794 -96.4142 424.496 -85.8613L389.835 -8.0108C323.194 -37.681 244.923 -7.63535 215.252 59.005L293.103 93.6663C303.651 69.9744 331.562 59.0834 355.264 69.6362L389.925 -8.21426C323.289 -37.8947 293.239 -116.156 322.909 -182.797ZM1047.68 139.893L969.833 105.232C959.284 128.924 931.374 139.815 907.672 129.262L873.01 207.113C939.651 236.783 969.696 315.055 940.026 381.695L862.176 347.034C872.724 323.342 862.142 295.313 838.44 284.76L873.101 206.909C939.741 236.579 1018.01 206.534 1047.68 139.893Z" fill="#64B572"/>
</g>
<defs>
<clipPath id="clip0_66_172">
<rect width="266" height="662" fill="white"/>
</clipPath>
</defs>
</svg>
