<svg width="491" height="654" viewBox="0 0 491 654" fill="none" xmlns="http://www.w3.org/2000/svg">
<path fill-rule="evenodd" clip-rule="evenodd" d="M698.5 260.133C765.14 289.803 795.186 368.075 765.515 434.715L687.665 400.054C677.117 423.746 649.206 434.637 625.504 424.084L590.843 501.934L512.992 467.273C502.444 490.965 474.533 501.856 450.831 491.303L416.17 569.154C482.81 598.824 512.856 677.096 483.186 743.736L405.335 709.075C415.884 685.383 405.301 657.354 381.599 646.801L416.261 568.95C482.901 598.62 561.173 568.575 590.843 501.934C657.483 531.605 735.755 501.559 765.425 434.919L687.574 400.257C698.123 376.566 687.54 348.536 663.838 337.984L698.5 260.133L620.649 225.472C631.197 201.78 620.615 173.751 596.913 163.198L631.574 85.3474C698.215 115.018 776.486 84.972 806.157 18.3316L728.306 -16.3297C717.758 7.36221 689.847 18.2532 666.145 7.70039L631.484 85.5509C698.124 115.221 728.17 193.493 698.5 260.133ZM161.531 165.804L239.381 200.465C249.93 176.773 277.84 165.882 301.542 176.435L336.203 98.5846L414.054 133.246C424.602 109.554 452.513 98.663 476.215 109.216L510.876 31.3653C444.236 1.69515 414.19 -76.5765 443.86 -143.217L521.711 -108.556C511.163 -84.8637 521.745 -56.8345 545.447 -46.2817L510.786 31.5688C444.145 1.8986 365.874 31.9443 336.203 98.5846C269.568 68.9043 191.296 98.9499 161.626 165.59L239.476 200.252C228.928 223.943 239.51 251.973 263.212 262.525L228.551 340.376L306.402 375.037C295.853 398.729 306.436 426.758 330.138 437.311L295.476 515.161C228.836 485.491 150.564 515.537 120.894 582.177L198.745 616.839C209.293 593.147 237.204 582.256 260.906 592.809L295.567 514.958C228.927 485.288 198.881 407.016 228.551 340.376C161.911 310.706 131.865 232.434 161.531 165.804ZM282.33 219.587L360.18 254.248C370.728 230.556 398.639 219.665 422.341 230.218L457.002 152.368L534.853 187.029C545.401 163.337 573.312 152.446 597.014 162.999L631.675 85.1485C565.035 55.4783 534.989 -22.7933 564.659 -89.4336L642.51 -54.7724C631.962 -31.0805 642.544 -3.05135 666.246 7.50147L631.585 85.352C564.944 55.6818 486.673 85.7274 457.002 152.368C390.362 122.698 312.09 152.743 282.42 219.384L360.271 254.045C349.722 277.737 360.305 305.766 384.007 316.319L349.346 394.169L427.196 428.83C416.648 452.522 427.23 480.552 450.932 491.104L416.271 568.955C349.63 539.285 271.359 569.33 241.689 635.971L319.539 670.632C330.087 646.94 357.998 636.049 381.7 646.602L416.361 568.751C349.721 539.081 319.675 460.81 349.346 394.169C282.705 364.499 252.66 286.227 282.33 219.587ZM403.129 273.37L480.979 308.032C491.528 284.34 519.438 273.449 543.14 284.001L577.801 206.151C511.161 176.481 432.889 206.526 403.219 273.167L481.07 307.828C470.522 331.52 481.104 359.549 504.806 370.102L470.145 447.952C403.504 418.282 373.459 340.011 403.129 273.37ZM886.314 488.498L808.464 453.837C819.012 430.145 808.43 402.116 784.728 391.563L819.389 313.713L741.539 279.052C752.087 255.36 741.505 227.33 717.803 216.778L752.464 138.927C819.104 168.597 897.376 138.552 927.046 71.9113L849.196 37.2501C838.647 60.942 810.737 71.8329 787.035 61.2801L752.373 139.131C819.014 168.801 849.059 247.072 819.389 313.713C886.03 343.383 916.075 421.655 886.405 488.295L808.555 453.634C798.006 477.326 770.096 488.217 746.394 477.664L711.732 555.514L633.882 520.853C623.334 544.545 595.423 555.436 571.721 544.883L537.06 622.733C603.7 652.404 633.746 730.675 604.075 797.316L526.225 762.654C536.773 738.963 526.191 710.933 502.489 700.381L537.15 622.53C603.791 652.2 682.062 622.155 711.732 555.514C778.373 585.184 856.644 555.139 886.314 488.498ZM644.727 380.937L566.876 346.275C577.424 322.583 566.842 294.554 543.14 284.001L577.801 206.151C644.442 235.821 674.487 314.093 644.817 380.733L566.967 346.072C556.418 369.764 528.508 380.655 504.806 370.102L470.145 447.952C536.785 477.623 615.056 447.577 644.727 380.937ZM0.190235 528.181L78.0407 562.842C88.589 539.15 116.5 528.259 140.202 538.812L174.863 460.961C108.223 431.291 78.177 353.019 107.847 286.379L185.698 321.04C175.149 344.732 185.732 372.761 209.434 383.314L174.772 461.165C108.132 431.495 29.8604 461.54 0.190235 528.181ZM724.964 850.871L647.113 816.209C657.662 792.517 647.079 764.488 623.377 753.935L658.039 676.085C724.679 705.755 802.951 675.709 832.621 609.069L754.77 574.408C744.222 598.1 716.311 608.991 692.609 598.438L657.948 676.288C724.588 705.959 754.634 784.23 724.964 850.871ZM322.971 -196.797L400.821 -162.135C390.273 -138.443 400.855 -110.414 424.557 -99.8614L389.896 -22.0109C323.256 -51.6811 244.984 -21.6355 215.314 45.0049L293.164 79.6662C303.713 55.9743 331.623 45.0833 355.325 55.6361L389.987 -22.2144C323.351 -51.8948 293.301 -130.156 322.971 -196.797ZM1047.74 125.893L969.894 91.2322C959.346 114.924 931.435 125.815 907.733 115.262L873.072 193.113C939.712 222.783 969.758 301.055 940.088 367.695L862.237 333.034C872.785 309.342 862.203 281.313 838.501 270.76L873.162 192.909C939.803 222.579 1018.07 192.534 1047.74 125.893Z" fill="#64B572"/>
</svg>
