<svg width="571" height="653" viewBox="0 0 571 653" fill="none" xmlns="http://www.w3.org/2000/svg">
<path opacity="0.5" fill-rule="evenodd" clip-rule="evenodd" d="M-11.3289 761.565C99.6911 810.994 149.746 941.391 100.317 1052.41L-29.379 994.667C-46.952 1034.14 -93.45 1052.28 -132.937 1034.7L-190.681 1164.4L-320.376 1106.65C-337.949 1146.12 -384.447 1164.26 -423.934 1146.68L-481.678 1276.38C-370.658 1325.81 -320.603 1456.21 -370.033 1567.23L-499.728 1509.48C-482.155 1470.01 -499.785 1423.32 -539.272 1405.74L-481.527 1276.04C-370.507 1325.47 -240.11 1275.42 -190.681 1164.4C-79.6608 1213.82 50.7365 1163.77 100.166 1052.75L-29.5299 995.006C-11.9568 955.536 -29.5865 908.841 -69.0731 891.26L-11.3289 761.565L-141.025 703.82C-123.452 664.351 -141.081 617.655 -180.568 600.075L-122.824 470.379C-11.8035 519.808 118.594 469.753 168.023 358.733L38.3274 300.989C20.7544 340.459 -25.7436 358.603 -65.2302 341.022L-122.974 470.718C-11.9544 520.147 38.1004 650.544 -11.3289 761.565ZM-905.897 604.416L-776.201 662.16C-758.628 622.691 -712.13 604.547 -672.643 622.127L-614.899 492.432L-485.204 550.176C-467.63 510.706 -421.133 492.562 -381.646 510.143L-323.902 380.447C-434.922 331.018 -484.977 200.621 -435.547 89.6005L-305.852 147.345C-323.425 186.814 -305.795 233.51 -266.308 251.09L-324.053 380.786C-435.073 331.357 -565.47 381.412 -614.899 492.432C-725.912 442.985 -856.309 493.04 -905.738 604.06L-776.043 661.804C-793.616 701.274 -775.986 747.969 -736.499 765.55L-794.244 895.246L-664.548 952.99C-682.121 992.46 -664.491 1039.15 -625.005 1056.74L-682.749 1186.43C-793.769 1137 -924.166 1187.06 -973.595 1298.08L-843.9 1355.82C-826.327 1316.35 -779.829 1298.21 -740.342 1315.79L-682.598 1186.09C-793.618 1136.66 -843.673 1006.27 -794.244 895.246C-905.264 845.816 -955.318 715.419 -905.897 604.416ZM-704.651 694.017L-574.955 751.761C-557.382 712.291 -510.884 694.147 -471.397 711.728L-413.653 582.032L-283.957 639.776C-266.384 600.307 -219.886 582.163 -180.4 599.743L-122.656 470.048C-233.676 420.618 -283.73 290.221 -234.301 179.201L-104.606 236.945C-122.179 276.415 -104.549 323.11 -65.0623 340.691L-122.807 470.387C-233.827 420.957 -364.224 471.012 -413.653 582.032C-524.673 532.603 -655.07 582.658 -704.5 693.678L-574.804 751.422C-592.377 790.891 -574.747 837.587 -535.261 855.167L-593.005 984.863L-463.309 1042.61C-480.882 1082.08 -463.253 1128.77 -423.766 1146.35L-481.51 1276.05C-592.53 1226.62 -722.928 1276.67 -772.357 1387.69L-642.661 1445.44C-625.088 1405.97 -578.59 1387.82 -539.104 1405.41L-481.359 1275.71C-592.38 1226.28 -642.434 1095.88 -593.005 984.863C-704.025 935.434 -754.08 805.037 -704.651 694.017ZM-503.405 783.617L-373.709 841.361C-356.136 801.892 -309.638 783.748 -270.151 801.328L-212.407 671.633C-323.427 622.203 -453.824 672.258 -503.254 783.278L-373.558 841.022C-391.131 880.492 -373.501 927.187 -334.015 944.768L-391.759 1074.46C-502.779 1025.03 -552.834 894.637 -503.405 783.617ZM301.563 1142.01L171.867 1084.27C189.44 1044.8 171.81 998.102 132.324 980.522L190.068 850.826L60.3724 793.082C77.9455 753.612 60.3158 706.917 20.8292 689.336L78.5734 559.641C189.593 609.07 319.991 559.015 369.42 447.995L239.724 390.251C222.151 429.72 175.653 447.864 136.167 430.284L78.4225 559.979C189.443 609.409 239.497 739.806 190.068 850.826C301.088 900.255 351.143 1030.65 301.714 1141.67L172.018 1083.93C154.445 1123.4 107.947 1141.54 68.4604 1123.96L10.7161 1253.66L-118.979 1195.91C-136.552 1235.38 -183.051 1253.53 -222.537 1235.95L-280.281 1365.64C-169.261 1415.07 -119.206 1545.47 -168.636 1656.49L-298.331 1598.74C-280.758 1559.27 -298.388 1512.58 -337.875 1495L-280.13 1365.3C-169.11 1414.73 -38.7132 1364.68 10.7161 1253.66C121.736 1303.09 252.133 1253.03 301.563 1142.01ZM-100.912 962.818L-230.608 905.074C-213.035 865.604 -230.665 818.909 -270.151 801.328L-212.407 671.633C-101.387 721.062 -51.3322 851.459 -100.762 962.479L-230.457 904.735C-248.03 944.205 -294.528 962.349 -334.015 944.768L-391.759 1074.46C-280.739 1123.89 -150.342 1073.84 -100.912 962.818ZM-1174.68 1208.12L-1044.99 1265.86C-1027.41 1226.39 -980.916 1208.25 -941.43 1225.83L-883.686 1096.14C-994.706 1046.71 -1044.76 916.309 -995.331 805.289L-865.635 863.034C-883.209 902.503 -865.579 949.199 -826.092 966.779L-883.837 1096.47C-994.857 1047.05 -1125.25 1097.1 -1174.68 1208.12ZM32.7593 1745.71L-96.9363 1687.96C-79.3633 1648.49 -96.993 1601.8 -136.48 1584.22L-78.7353 1454.52C32.2847 1503.95 162.682 1453.9 212.111 1342.88L82.4156 1285.13C64.8426 1324.6 18.3446 1342.75 -21.142 1325.17L-78.8863 1454.86C32.1338 1504.29 82.1886 1634.69 32.7593 1745.71ZM-636.944 0.338941L-507.249 58.0832C-524.822 97.5528 -507.192 144.248 -467.705 161.829L-525.45 291.524C-636.47 242.095 -766.867 292.15 -816.296 403.17L-686.6 460.914C-669.027 421.445 -622.529 403.301 -583.043 420.881L-525.299 291.186C-636.311 241.739 -686.373 111.359 -636.944 0.338941ZM570.498 537.927L440.803 480.183C423.23 519.652 376.732 537.796 337.245 520.216L279.501 649.911C390.521 699.341 440.576 829.738 391.146 940.758L261.451 883.014C279.024 843.544 261.394 796.849 221.907 779.268L279.652 649.572C390.672 699.002 521.069 648.947 570.498 537.927Z" fill="#EFEFEF"/>
</svg>
