<svg width="667" height="420" viewBox="0 0 667 420" fill="none" xmlns="http://www.w3.org/2000/svg">
<path fill-rule="evenodd" clip-rule="evenodd" d="M698.5 457.133C765.14 486.803 795.186 565.075 765.515 631.715L687.665 597.054C677.117 620.746 649.206 631.637 625.504 621.084L590.843 698.934L512.992 664.273C502.444 687.965 474.533 698.856 450.831 688.303L416.17 766.154C482.81 795.824 512.856 874.096 483.186 940.736L405.335 906.075C415.884 882.383 405.301 854.354 381.599 843.801L416.261 765.95C482.901 795.62 561.173 765.575 590.843 698.934C657.483 728.605 735.755 698.559 765.425 631.919L687.574 597.257C698.123 573.566 687.54 545.536 663.838 534.984L698.5 457.133L620.649 422.472C631.197 398.78 620.615 370.751 596.913 360.198L631.574 282.347C698.215 312.018 776.486 281.972 806.157 215.332L728.306 180.67C717.758 204.362 689.847 215.253 666.145 204.7L631.484 282.551C698.124 312.221 728.17 390.493 698.5 457.133ZM161.531 362.804L239.381 397.465C249.93 373.773 277.84 362.882 301.542 373.435L336.203 295.585L414.054 330.246C424.602 306.554 452.513 295.663 476.215 306.216L510.876 228.365C444.236 198.695 414.19 120.424 443.86 53.7832L521.711 88.4444C511.163 112.136 521.745 140.165 545.447 150.718L510.786 228.569C444.145 198.899 365.874 228.944 336.203 295.585C269.568 265.904 191.296 295.95 161.626 362.59L239.476 397.252C228.928 420.943 239.51 448.973 263.212 459.525L228.551 537.376L306.402 572.037C295.853 595.729 306.436 623.758 330.138 634.311L295.476 712.161C228.836 682.491 150.564 712.537 120.894 779.177L198.745 813.839C209.293 790.147 237.204 779.256 260.906 789.809L295.567 711.958C228.927 682.288 198.881 604.016 228.551 537.376C161.911 507.706 131.865 429.434 161.531 362.804ZM282.33 416.587L360.18 451.248C370.728 427.556 398.639 416.665 422.341 427.218L457.002 349.368L534.853 384.029C545.401 360.337 573.312 349.446 597.014 359.999L631.675 282.149C565.035 252.478 534.989 174.207 564.659 107.566L642.51 142.228C631.962 165.919 642.544 193.949 666.246 204.501L631.585 282.352C564.944 252.682 486.673 282.727 457.002 349.368C390.362 319.698 312.09 349.743 282.42 416.384L360.271 451.045C349.722 474.737 360.305 502.766 384.007 513.319L349.346 591.169L427.196 625.83C416.648 649.522 427.23 677.552 450.932 688.104L416.271 765.955C349.63 736.285 271.359 766.33 241.689 832.971L319.539 867.632C330.087 843.94 357.998 833.049 381.7 843.602L416.361 765.751C349.721 736.081 319.675 657.81 349.346 591.169C282.705 561.499 252.66 483.227 282.33 416.587ZM403.129 470.37L480.979 505.032C491.528 481.34 519.438 470.449 543.14 481.001L577.801 403.151C511.161 373.481 432.889 403.526 403.219 470.167L481.07 504.828C470.522 528.52 481.104 556.549 504.806 567.102L470.145 644.952C403.504 615.282 373.459 537.011 403.129 470.37ZM886.314 685.498L808.464 650.837C819.012 627.145 808.43 599.116 784.728 588.563L819.389 510.713L741.539 476.052C752.087 452.36 741.505 424.33 717.803 413.778L752.464 335.927C819.104 365.597 897.376 335.552 927.046 268.911L849.196 234.25C838.647 257.942 810.737 268.833 787.035 258.28L752.373 336.131C819.014 365.801 849.059 444.072 819.389 510.713C886.03 540.383 916.075 618.655 886.405 685.295L808.555 650.634C798.006 674.326 770.096 685.217 746.394 674.664L711.732 752.514L633.882 717.853C623.334 741.545 595.423 752.436 571.721 741.883L537.06 819.733C603.7 849.404 633.746 927.675 604.075 994.316L526.225 959.654C536.773 935.963 526.191 907.933 502.489 897.381L537.15 819.53C603.791 849.2 682.062 819.155 711.732 752.514C778.373 782.184 856.644 752.139 886.314 685.498ZM644.727 577.937L566.876 543.275C577.424 519.583 566.842 491.554 543.14 481.001L577.801 403.151C644.442 432.821 674.487 511.093 644.817 577.733L566.967 543.072C556.418 566.764 528.508 577.655 504.806 567.102L470.145 644.952C536.785 674.623 615.056 644.577 644.727 577.937ZM0.190235 725.181L78.0407 759.842C88.589 736.15 116.5 725.259 140.202 735.812L174.863 657.961C108.223 628.291 78.177 550.019 107.847 483.379L185.698 518.04C175.149 541.732 185.732 569.761 209.434 580.314L174.772 658.165C108.132 628.495 29.8604 658.54 0.190235 725.181ZM724.964 1047.87L647.113 1013.21C657.662 989.517 647.079 961.488 623.377 950.935L658.039 873.085C724.679 902.755 802.951 872.709 832.621 806.069L754.77 771.408C744.222 795.1 716.311 805.991 692.609 795.438L657.948 873.288C724.588 902.959 754.634 981.23 724.964 1047.87ZM322.971 0.203451L400.821 34.8647C390.273 58.5566 400.855 86.5857 424.557 97.1386L389.896 174.989C323.256 145.319 244.984 175.365 215.314 242.005L293.164 276.666C303.713 252.974 331.623 242.083 355.325 252.636L389.987 174.786C323.351 145.105 293.301 66.8438 322.971 0.203451ZM1047.74 322.893L969.894 288.232C959.346 311.924 931.435 322.815 907.733 312.262L873.072 390.113C939.712 419.783 969.758 498.055 940.088 564.695L862.237 530.034C872.785 506.342 862.203 478.313 838.501 467.76L873.162 389.909C939.803 419.579 1018.07 389.534 1047.74 322.893Z" fill="#64B572"/>
</svg>
