<svg width="923" height="734" viewBox="0 0 923 734" fill="none" xmlns="http://www.w3.org/2000/svg">
<path opacity="0.5" fill-rule="evenodd" clip-rule="evenodd" d="M1622.48 -40.4414C1777.27 28.4768 1847.06 210.287 1778.15 365.08L1597.31 284.568C1572.81 339.6 1507.98 364.898 1452.93 340.385L1372.42 521.217L1191.58 440.706C1167.08 495.737 1102.25 521.035 1047.2 496.523L966.684 677.355C1121.48 746.273 1191.27 928.083 1122.35 1082.88L941.517 1002.36C966.018 947.333 941.438 882.226 886.382 857.714L966.894 676.882C1121.69 745.8 1303.5 676.01 1372.42 521.217C1527.21 590.135 1709.02 520.345 1777.94 365.552L1597.1 285.041C1621.61 230.009 1597.03 164.903 1541.97 140.39L1622.48 -40.4414L1441.65 -120.953C1466.15 -175.985 1441.57 -241.091 1386.52 -265.603L1467.03 -446.435C1621.82 -377.517 1803.63 -447.307 1872.55 -602.1L1691.72 -682.612C1667.21 -627.58 1602.38 -602.282 1547.33 -626.794L1466.82 -445.963C1621.61 -377.044 1691.4 -195.234 1622.48 -40.4414ZM375.205 -259.55L556.037 -179.039C580.539 -234.07 645.37 -259.368 700.425 -234.856L780.937 -415.688L961.768 -335.176C986.27 -390.208 1051.1 -415.506 1106.16 -390.993L1186.67 -571.825C1031.88 -640.743 962.085 -822.553 1031 -977.346L1211.83 -896.835C1187.33 -841.803 1211.91 -776.697 1266.97 -752.185L1186.46 -571.353C1031.66 -640.271 849.855 -570.48 780.937 -415.688C626.154 -484.629 444.344 -414.839 375.426 -260.046L556.258 -179.535C531.756 -124.503 556.337 -59.3968 611.392 -34.8846L530.881 145.947L711.712 226.459C687.211 281.491 711.791 346.597 766.847 371.109L686.335 551.941C531.542 483.023 349.732 552.813 280.814 707.606L461.646 788.118C486.148 733.086 550.979 707.788 606.034 732.3L686.545 551.469C531.753 482.55 461.962 300.74 530.881 145.947C376.088 77.0292 306.297 -104.781 375.205 -259.55ZM655.798 -134.622L836.63 -54.1105C861.132 -109.142 925.963 -134.44 981.018 -109.928L1061.53 -290.76L1242.36 -210.248C1266.86 -265.28 1331.69 -290.577 1386.75 -266.065L1467.26 -446.897C1312.47 -515.815 1242.68 -697.625 1311.6 -852.418L1492.43 -771.907C1467.93 -716.875 1492.51 -651.769 1547.56 -627.256L1467.05 -446.425C1312.26 -515.343 1130.45 -445.552 1061.53 -290.76C906.737 -359.678 724.927 -289.888 656.008 -135.095L836.84 -54.5831C812.339 0.448575 836.919 65.555 891.975 90.0671L811.463 270.899L992.295 351.411C967.793 406.442 992.374 471.549 1047.43 496.061L966.918 676.893C812.125 607.975 630.315 677.765 561.396 832.558L742.228 913.069C766.73 858.038 831.561 832.74 886.616 857.252L967.128 676.42C812.335 607.502 742.545 425.692 811.463 270.899C656.67 201.981 586.88 20.1708 655.798 -134.622ZM936.391 -9.69398L1117.22 70.8176C1141.72 15.7859 1206.56 -9.51189 1261.61 15.0003L1342.12 -165.832C1187.33 -234.75 1005.52 -164.959 936.602 -10.1666L1117.43 70.3449C1092.93 125.377 1117.51 190.483 1172.57 214.995L1092.06 395.827C937.263 326.909 867.473 145.099 936.391 -9.69398ZM2058.74 490.008L1877.91 409.496C1902.41 354.465 1877.83 289.358 1822.77 264.846L1903.29 84.0141L1722.45 3.50257C1746.95 -51.5291 1722.37 -116.636 1667.32 -141.148L1747.83 -321.98C1902.62 -253.061 2084.43 -322.852 2153.35 -477.645L1972.52 -558.156C1948.02 -503.124 1883.19 -477.827 1828.13 -502.339L1747.62 -321.507C1902.41 -252.589 1972.2 -70.7787 1903.29 84.0141C2058.08 152.932 2127.87 334.742 2058.95 489.535L1878.12 409.024C1853.62 464.055 1788.79 489.353 1733.73 464.841L1653.22 645.673L1472.39 565.161C1447.89 620.193 1383.05 645.491 1328 620.978L1247.49 801.81C1402.28 870.728 1472.07 1052.54 1403.15 1207.33L1222.32 1126.82C1246.82 1071.79 1222.24 1006.68 1167.19 982.17L1247.7 801.338C1402.49 870.256 1584.3 800.466 1653.22 645.673C1808.01 714.591 1989.82 644.801 2058.74 490.008ZM1497.58 240.162L1316.75 159.651C1341.25 104.619 1316.67 39.5125 1261.61 15.0003L1342.12 -165.832C1496.92 -96.9133 1566.71 84.8967 1497.79 239.69L1316.96 159.178C1292.45 214.21 1227.62 239.507 1172.57 214.995L1092.06 395.827C1246.85 464.745 1428.66 394.955 1497.58 240.162ZM0.441835 582.182L181.274 662.693C205.775 607.662 270.607 582.364 325.662 606.876L406.173 426.044C251.381 357.126 181.59 175.316 250.508 20.5231L431.34 101.035C406.839 156.066 431.419 221.173 486.475 245.685L405.963 426.517C251.17 357.599 69.3601 427.389 0.441835 582.182ZM1683.95 1331.73L1503.12 1251.22C1527.62 1196.19 1503.04 1131.08 1447.99 1106.57L1528.5 925.735C1683.29 994.654 1865.1 924.863 1934.02 770.07L1753.19 689.559C1728.69 744.591 1663.85 769.888 1608.8 745.376L1528.29 926.208C1683.08 995.126 1752.87 1176.94 1683.95 1331.73ZM750.2 -1101.8L931.032 -1021.29C906.53 -966.259 931.11 -901.152 986.166 -876.64L905.654 -695.808C750.861 -764.726 569.051 -694.936 500.133 -540.143L680.965 -459.632C705.467 -514.663 770.298 -539.961 825.353 -515.449L905.865 -696.281C751.082 -765.223 681.281 -947.009 750.2 -1101.8ZM2433.71 -352.254L2252.88 -432.766C2228.38 -377.734 2163.55 -352.437 2108.49 -376.949L2027.98 -196.117C2182.77 -127.199 2252.56 54.6114 2183.64 209.404L2002.81 128.893C2027.31 73.861 2002.73 8.75459 1947.68 -15.7576L2028.19 -196.59C2182.98 -127.671 2364.79 -197.462 2433.71 -352.254Z" fill="white"/>
</svg>
