<svg width="924" height="654" viewBox="0 0 924 654" fill="none" xmlns="http://www.w3.org/2000/svg">
<path fill-rule="evenodd" clip-rule="evenodd" d="M1937.38 -223.08C2122.22 -140.786 2205.55 76.3106 2123.26 261.146L1907.33 165.009C1878.07 230.721 1800.66 260.929 1734.92 231.659L1638.78 447.588L1422.85 351.45C1393.6 417.163 1316.18 447.371 1250.44 418.101L1154.3 634.03C1339.14 716.324 1422.47 933.421 1340.18 1118.26L1124.25 1022.12C1153.51 956.406 1124.16 878.664 1058.42 849.394L1154.55 633.465C1339.39 715.76 1556.49 632.424 1638.78 447.588C1823.62 529.882 2040.71 446.547 2123.01 261.711L1907.08 165.573C1936.34 99.8606 1906.99 22.118 1841.24 -7.1517L1937.38 -223.08L1721.45 -319.218C1750.71 -384.931 1721.36 -462.673 1655.62 -491.943L1751.76 -707.872C1936.59 -625.577 2153.69 -708.913 2235.98 -893.749L2020.05 -989.887C1990.8 -924.174 1913.38 -893.966 1847.64 -923.236L1751.5 -707.307C1936.34 -625.013 2019.68 -407.916 1937.38 -223.08ZM448.027 -484.715L663.956 -388.577C693.213 -454.29 770.627 -484.498 836.367 -455.228L932.505 -671.157L1148.43 -575.019C1177.69 -640.731 1255.1 -670.939 1320.85 -641.669L1416.98 -857.598C1232.15 -939.892 1148.81 -1156.99 1231.11 -1341.83L1447.03 -1245.69C1417.78 -1179.97 1447.13 -1102.23 1512.87 -1072.96L1416.73 -857.034C1231.9 -939.328 1014.8 -855.993 932.505 -671.157C747.682 -753.479 530.585 -670.143 448.291 -485.308L664.219 -389.17C634.962 -323.457 664.314 -245.715 730.055 -216.445L633.917 -0.516339L849.846 95.6213C820.588 161.334 849.94 239.077 915.681 268.346L819.543 484.275C634.707 401.981 417.61 485.316 335.316 670.152L551.245 766.29C580.502 700.577 657.916 670.37 723.657 699.639L819.794 483.711C634.958 401.416 551.623 184.32 633.917 -0.516339C449.081 -82.8106 365.745 -299.907 448.027 -484.715ZM783.079 -335.54L999.008 -239.403C1028.26 -305.115 1105.68 -335.323 1171.42 -306.053L1267.56 -521.982L1483.49 -425.844C1512.74 -491.557 1590.16 -521.764 1655.9 -492.495L1752.04 -708.423C1567.2 -790.718 1483.86 -1007.81 1566.16 -1192.65L1782.09 -1096.51C1752.83 -1030.8 1782.18 -953.058 1847.92 -923.788L1751.78 -707.859C1566.95 -790.153 1349.85 -706.818 1267.56 -521.982C1082.72 -604.276 865.625 -520.94 783.33 -336.105L999.259 -239.967C970.002 -174.254 999.353 -96.5117 1065.09 -67.242L968.956 148.687L1184.89 244.824C1155.63 310.537 1184.98 388.28 1250.72 417.549L1154.58 633.478C969.747 551.184 752.65 634.519 670.356 819.355L886.284 915.493C915.541 849.78 992.955 819.573 1058.7 848.842L1154.83 632.914C969.998 550.619 886.662 333.523 968.956 148.687C784.12 66.3925 700.785 -150.704 783.079 -335.54ZM1118.13 -186.365L1334.06 -90.2277C1363.32 -155.94 1440.73 -186.148 1506.47 -156.878L1602.61 -372.807C1417.77 -455.101 1200.68 -371.766 1118.38 -186.93L1334.31 -90.7921C1305.05 -25.0795 1334.41 52.6631 1400.15 81.9328L1304.01 297.862C1119.17 215.567 1035.84 -1.52948 1118.13 -186.365ZM2458.31 410.321L2242.38 314.184C2271.64 248.471 2242.29 170.728 2176.55 141.459L2272.69 -74.4699L2056.76 -170.608C2086.01 -236.32 2056.66 -314.063 1990.92 -343.332L2087.06 -559.261C2271.9 -476.967 2488.99 -560.303 2571.29 -745.138L2355.36 -841.276C2326.1 -775.564 2248.69 -745.356 2182.95 -774.626L2086.81 -558.697C2271.64 -476.403 2354.98 -259.306 2272.69 -74.4699C2457.52 7.82438 2540.86 224.921 2458.56 409.757L2242.63 313.619C2213.38 379.332 2135.96 409.54 2070.22 380.27L1974.08 596.199L1758.16 500.061C1728.9 565.774 1651.48 595.981 1585.74 566.712L1489.61 782.64C1674.44 864.934 1757.78 1082.03 1675.48 1266.87L1459.56 1170.73C1488.81 1105.02 1459.46 1027.27 1393.72 998.005L1489.86 782.076C1674.69 864.37 1891.79 781.035 1974.08 596.199C2158.92 678.493 2376.02 595.157 2458.31 410.321ZM1788.24 111.984L1572.31 15.8466C1601.56 -49.866 1572.21 -127.609 1506.47 -156.878L1602.61 -372.807C1787.45 -290.513 1870.78 -73.416 1788.49 111.42L1572.56 15.2822C1543.3 80.9948 1465.89 111.202 1400.15 81.9328L1304.01 297.862C1488.84 380.156 1705.94 296.82 1788.24 111.984ZM0.527597 520.385L216.456 616.523C245.713 550.81 323.127 520.602 388.868 549.872L485.006 333.943C300.17 251.649 216.834 34.5523 299.128 -150.284L515.057 -54.146C485.8 11.5666 515.152 89.3091 580.892 118.579L484.755 334.508C299.919 252.213 82.8218 335.549 0.527597 520.385ZM2010.78 1415.41L1794.86 1319.27C1824.11 1253.56 1794.76 1175.82 1729.02 1146.55L1825.16 930.617C2009.99 1012.91 2227.09 929.576 2309.38 744.74L2093.46 648.603C2064.2 714.315 1986.79 744.523 1921.04 715.253L1824.91 931.182C2009.74 1013.48 2093.08 1230.57 2010.78 1415.41ZM895.803 -1490.44L1111.73 -1394.3C1082.47 -1328.59 1111.83 -1250.84 1177.57 -1221.57L1081.43 -1005.64C896.593 -1087.94 679.496 -1004.6 597.202 -819.767L813.13 -723.629C842.388 -789.342 919.801 -819.55 985.542 -790.28L1081.68 -1006.21C896.857 -1088.53 813.508 -1305.6 895.803 -1490.44ZM2906.06 -595.412L2690.13 -691.55C2660.87 -625.837 2583.46 -595.629 2517.72 -624.899L2421.58 -408.97C2606.42 -326.676 2689.75 -109.579 2607.46 75.2567L2391.53 -20.881C2420.79 -86.5935 2391.44 -164.336 2325.69 -193.606L2421.83 -409.535C2606.67 -327.24 2823.76 -410.576 2906.06 -595.412Z" fill="#0D7F88"/>
</svg>
