<svg width="1041" height="820" viewBox="0 0 1041 820" fill="none" xmlns="http://www.w3.org/2000/svg">
<path fill-rule="evenodd" clip-rule="evenodd" d="M1197.73 -193.146C1312 -142.27 1363.52 -8.05579 1312.64 106.214L1179.15 46.7794C1161.06 87.4042 1113.21 106.079 1072.56 87.9841L1013.13 221.476L879.637 162.041C861.55 202.666 813.691 221.341 773.049 203.246L713.614 336.738C827.884 387.614 879.404 521.828 828.527 636.097L695.036 576.663C713.123 536.038 694.978 487.976 654.335 469.881L713.77 336.389C828.039 387.265 962.253 335.745 1013.13 221.476C1127.4 272.352 1261.61 220.832 1312.49 106.562L1179 47.1282C1197.08 6.50331 1178.94 -41.5588 1138.3 -59.6539L1197.73 -193.146L1064.24 -252.58C1082.33 -293.205 1064.18 -341.267 1023.54 -359.362L1082.97 -492.854C1197.24 -441.978 1331.46 -493.497 1382.33 -607.767L1248.84 -667.201C1230.75 -626.576 1182.89 -607.901 1142.25 -625.996L1082.82 -492.505C1197.09 -441.629 1248.61 -307.415 1197.73 -193.146ZM276.98 -354.894L410.471 -295.459C428.559 -336.084 476.418 -354.759 517.06 -336.664L576.494 -470.156L709.986 -410.721C728.073 -451.346 775.932 -470.021 816.574 -451.926L876.009 -585.418C761.739 -636.294 710.219 -770.508 761.095 -884.777L894.587 -825.343C876.5 -784.718 894.645 -736.656 935.288 -718.561L875.853 -585.069C761.584 -635.945 627.37 -584.425 576.494 -470.156C462.232 -521.049 328.019 -469.529 277.143 -355.26L410.634 -295.826C392.547 -255.201 410.693 -207.139 451.335 -189.043L391.901 -55.5518L525.392 3.88255C507.305 44.5074 525.451 92.5696 566.093 110.665L506.659 244.156C392.389 193.28 258.175 244.8 207.299 359.07L340.791 418.504C358.878 377.879 406.737 359.204 447.38 377.299L506.814 243.808C392.544 192.931 341.025 58.7177 391.901 -55.5518C277.631 -106.428 226.111 -240.642 276.98 -354.894ZM484.116 -262.671L617.608 -203.236C635.695 -243.861 683.554 -262.536 724.196 -244.441L783.63 -377.933L917.122 -318.498C935.209 -359.123 983.068 -377.798 1023.71 -359.703L1083.14 -493.195C968.876 -544.071 917.356 -678.285 968.232 -792.554L1101.72 -733.12C1083.64 -692.495 1101.78 -644.433 1142.42 -626.338L1082.99 -492.846C968.72 -543.722 834.506 -492.202 783.63 -377.933C669.361 -428.809 535.147 -377.289 484.271 -263.019L617.763 -203.585C599.676 -162.96 617.821 -114.898 658.463 -96.803L599.029 36.6887L732.521 96.123C714.433 136.748 732.579 184.81 773.221 202.905L713.787 336.397C599.518 285.521 465.304 337.041 414.428 451.31L547.919 510.744C566.007 470.119 613.866 451.444 654.508 469.54L713.942 336.048C599.673 285.172 548.153 150.958 599.029 36.6887C484.76 -14.1873 433.24 -148.401 484.116 -262.671ZM691.252 -170.448L824.744 -111.013C842.831 -151.638 890.69 -170.313 931.332 -152.218L990.767 -285.71C876.497 -336.586 742.283 -285.066 691.407 -170.796L824.899 -111.362C806.812 -70.7372 824.957 -22.6751 865.6 -4.58L806.165 128.912C691.896 78.0357 640.376 -56.1781 691.252 -170.448ZM1519.78 198.437L1386.29 139.002C1404.38 98.3775 1386.23 50.3153 1345.59 32.2202L1405.02 -101.271L1271.53 -160.706C1289.62 -201.331 1271.47 -249.393 1230.83 -267.488L1290.26 -400.98C1404.53 -350.104 1538.75 -401.623 1589.62 -515.893L1456.13 -575.327C1438.04 -534.702 1390.19 -516.027 1349.54 -534.122L1290.11 -400.631C1404.38 -349.755 1455.9 -215.541 1405.02 -101.271C1519.29 -50.3954 1570.81 83.8183 1519.93 198.088L1386.44 138.653C1368.36 179.278 1320.5 197.953 1279.85 179.858L1220.42 313.35L1086.93 253.916C1068.84 294.54 1020.98 313.215 980.34 295.12L920.906 428.612C1035.18 479.488 1086.7 613.702 1035.82 727.971L902.327 668.537C920.415 627.912 902.269 579.85 861.627 561.755L921.061 428.263C1035.33 479.139 1169.54 427.619 1220.42 313.35C1334.69 364.226 1468.9 312.706 1519.78 198.437ZM1105.52 13.9984L972.033 -45.4359C990.12 -86.0608 971.975 -134.123 931.332 -152.218L990.767 -285.71C1105.04 -234.834 1156.56 -100.62 1105.68 13.6495L972.188 -45.7848C954.101 -5.1599 906.242 13.5151 865.6 -4.58L806.165 128.912C920.435 179.788 1054.65 128.268 1105.52 13.9984ZM0.32614 266.48L133.818 325.915C151.905 285.29 199.764 266.615 240.406 284.71L299.841 151.218C185.571 100.342 134.051 -33.8716 184.927 -148.141L318.419 -88.7067C300.332 -48.0819 318.477 -0.0197816 359.12 18.0753L299.685 151.567C185.416 100.691 51.2022 152.211 0.32614 266.48ZM1243.11 819.803L1109.62 760.368C1127.7 719.744 1109.56 671.681 1068.92 653.586L1128.35 520.095C1242.62 570.971 1376.83 519.451 1427.71 405.181L1294.22 345.747C1276.13 386.372 1228.27 405.047 1187.63 386.952L1128.2 520.444C1242.46 571.32 1293.98 705.533 1243.11 819.803ZM553.804 -976.651L687.296 -917.217C669.208 -876.592 687.354 -828.53 727.996 -810.435L668.562 -676.943C554.292 -727.819 420.079 -676.299 369.203 -562.03L502.694 -502.595C520.782 -543.22 568.641 -561.895 609.283 -543.8L668.717 -677.292C554.455 -728.185 502.928 -862.382 553.804 -976.651ZM1796.59 -423.329L1663.09 -482.763C1645.01 -442.138 1597.15 -423.463 1556.51 -441.558L1497.07 -308.067C1611.34 -257.191 1662.86 -122.977 1611.99 -8.70735L1478.49 -68.1416C1496.58 -108.767 1478.44 -156.829 1437.79 -174.924L1497.23 -308.415C1611.5 -257.539 1745.71 -309.059 1796.59 -423.329Z" fill="#EFEFEF"/>
</svg>
