<svg width="1797" height="1797" viewBox="0 0 1797 1797" fill="none" xmlns="http://www.w3.org/2000/svg">
<path fill-rule="evenodd" clip-rule="evenodd" d="M1197.73 783.854C1312 834.73 1363.52 968.944 1312.64 1083.21L1179.15 1023.78C1161.06 1064.4 1113.21 1083.08 1072.56 1064.98L1013.13 1198.48L879.637 1139.04C861.55 1179.67 813.691 1198.34 773.049 1180.25L713.614 1313.74C827.884 1364.61 879.404 1498.83 828.527 1613.1L695.036 1553.66C713.123 1513.04 694.978 1464.98 654.335 1446.88L713.77 1313.39C828.039 1364.27 962.253 1312.75 1013.13 1198.48C1127.4 1249.35 1261.61 1197.83 1312.49 1083.56L1179 1024.13C1197.08 983.503 1178.94 935.441 1138.3 917.346L1197.73 783.854L1064.24 724.42C1082.33 683.795 1064.18 635.733 1023.54 617.638L1082.97 484.146C1197.24 535.022 1331.46 483.503 1382.33 369.233L1248.84 309.799C1230.75 350.424 1182.89 369.099 1142.25 351.004L1082.82 484.495C1197.09 535.371 1248.61 669.585 1197.73 783.854ZM276.98 622.106L410.471 681.541C428.559 640.916 476.418 622.241 517.06 640.336L576.494 506.844L709.986 566.279C728.073 525.654 775.932 506.979 816.574 525.074L876.009 391.582C761.739 340.706 710.219 206.492 761.095 92.223L894.587 151.657C876.5 192.282 894.645 240.344 935.288 258.439L875.853 391.931C761.584 341.055 627.37 392.575 576.494 506.844C462.232 455.951 328.019 507.471 277.143 621.74L410.634 681.174C392.547 721.799 410.693 769.861 451.335 787.957L391.901 921.448L525.392 980.883C507.305 1021.51 525.451 1069.57 566.093 1087.66L506.659 1221.16C392.389 1170.28 258.175 1221.8 207.299 1336.07L340.791 1395.5C358.878 1354.88 406.737 1336.2 447.38 1354.3L506.814 1220.81C392.544 1169.93 341.025 1035.72 391.901 921.448C277.631 870.572 226.111 736.358 276.98 622.106ZM484.116 714.329L617.608 773.764C635.695 733.139 683.554 714.464 724.196 732.559L783.63 599.067L917.122 658.502C935.209 617.877 983.068 599.202 1023.71 617.297L1083.14 483.805C968.876 432.929 917.356 298.715 968.232 184.446L1101.72 243.88C1083.64 284.505 1101.78 332.567 1142.42 350.662L1082.99 484.154C968.72 433.278 834.506 484.798 783.63 599.067C669.361 548.191 535.147 599.711 484.271 713.981L617.763 773.415C599.676 814.04 617.821 862.102 658.463 880.197L599.029 1013.69L732.521 1073.12C714.433 1113.75 732.579 1161.81 773.221 1179.91L713.787 1313.4C599.518 1262.52 465.304 1314.04 414.428 1428.31L547.919 1487.74C566.007 1447.12 613.866 1428.44 654.508 1446.54L713.942 1313.05C599.673 1262.17 548.153 1127.96 599.029 1013.69C484.76 962.813 433.24 828.599 484.116 714.329ZM691.252 806.552L824.744 865.987C842.831 825.362 890.69 806.687 931.332 824.782L990.767 691.29C876.497 640.414 742.283 691.934 691.407 806.204L824.899 865.638C806.812 906.263 824.957 954.325 865.6 972.42L806.165 1105.91C691.896 1055.04 640.376 920.822 691.252 806.552ZM1519.78 1175.44L1386.29 1116C1404.38 1075.38 1386.23 1027.32 1345.59 1009.22L1405.02 875.729L1271.53 816.294C1289.62 775.669 1271.47 727.607 1230.83 709.512L1290.26 576.02C1404.53 626.896 1538.75 575.377 1589.62 461.107L1456.13 401.673C1438.04 442.298 1390.19 460.973 1349.54 442.878L1290.11 576.369C1404.38 627.245 1455.9 761.459 1405.02 875.729C1519.29 926.605 1570.81 1060.82 1519.93 1175.09L1386.44 1115.65C1368.36 1156.28 1320.5 1174.95 1279.85 1156.86L1220.42 1290.35L1086.93 1230.92C1068.84 1271.54 1020.98 1290.22 980.34 1272.12L920.906 1405.61C1035.18 1456.49 1086.7 1590.7 1035.82 1704.97L902.327 1645.54C920.415 1604.91 902.269 1556.85 861.627 1538.75L921.061 1405.26C1035.33 1456.14 1169.54 1404.62 1220.42 1290.35C1334.69 1341.23 1468.9 1289.71 1519.78 1175.44ZM1105.52 990.998L972.033 931.564C990.12 890.939 971.975 842.877 931.332 824.782L990.767 691.29C1105.04 742.166 1156.56 876.38 1105.68 990.65L972.188 931.215C954.101 971.84 906.242 990.515 865.6 972.42L806.165 1105.91C920.435 1156.79 1054.65 1105.27 1105.52 990.998ZM0.32614 1243.48L133.818 1302.91C151.905 1262.29 199.764 1243.61 240.406 1261.71L299.841 1128.22C185.571 1077.34 134.051 943.128 184.927 828.859L318.419 888.293C300.332 928.918 318.477 976.98 359.12 995.075L299.685 1128.57C185.416 1077.69 51.2022 1129.21 0.32614 1243.48ZM1243.11 1796.8L1109.62 1737.37C1127.7 1696.74 1109.56 1648.68 1068.92 1630.59L1128.35 1497.09C1242.62 1547.97 1376.83 1496.45 1427.71 1382.18L1294.22 1322.75C1276.13 1363.37 1228.27 1382.05 1187.63 1363.95L1128.2 1497.44C1242.46 1548.32 1293.98 1682.53 1243.11 1796.8ZM553.804 0.348861L687.296 59.7832C669.208 100.408 687.354 148.47 727.996 166.565L668.562 300.057C554.292 249.181 420.079 300.701 369.203 414.97L502.694 474.405C520.782 433.78 568.641 415.105 609.283 433.2L668.717 299.708C554.455 248.815 502.928 114.618 553.804 0.348861ZM1796.59 553.671L1663.09 494.237C1645.01 534.862 1597.15 553.537 1556.51 535.442L1497.07 668.933C1611.34 719.809 1662.86 854.023 1611.99 968.293L1478.49 908.858C1496.58 868.233 1478.44 820.171 1437.79 802.076L1497.23 668.585C1611.5 719.461 1745.71 667.941 1796.59 553.671Z" fill="#EFEFEF"/>
</svg>
