<svg width="571" height="1271" viewBox="0 0 571 1271" fill="none" xmlns="http://www.w3.org/2000/svg">
<path fill-rule="evenodd" clip-rule="evenodd" d="M1296.05 776.335C1419.71 831.388 1475.46 976.623 1420.4 1100.28L1275.95 1035.96C1256.38 1079.92 1204.59 1100.13 1160.61 1080.55L1096.3 1225L951.842 1160.69C932.269 1204.65 880.481 1224.86 836.501 1205.28L772.186 1349.73C895.839 1404.78 951.589 1550.02 896.536 1673.67L752.082 1609.36C771.655 1565.39 752.019 1513.39 708.04 1493.8L772.354 1349.35C896.007 1404.41 1041.24 1348.65 1096.3 1225C1219.95 1280.06 1365.18 1224.31 1420.24 1100.65L1275.78 1036.34C1295.36 992.378 1275.72 940.369 1231.74 920.788L1296.05 776.335L1151.6 712.02C1171.17 668.059 1151.54 616.051 1107.56 596.47L1171.87 452.016C1295.53 507.07 1440.76 451.32 1495.81 327.667L1351.36 263.352C1331.79 307.313 1280 327.522 1236.02 307.941L1171.71 452.394C1295.36 507.448 1351.11 652.682 1296.05 776.335ZM299.698 601.305L444.151 665.62C463.724 621.659 515.512 601.45 559.492 621.031L623.807 476.578L768.26 540.893C787.833 496.932 839.621 476.724 883.601 496.305L947.916 351.851C824.263 296.798 768.513 151.563 823.566 27.9107L968.02 92.2254C948.447 136.186 968.083 188.195 1012.06 207.776L947.748 352.229C824.095 297.175 678.86 352.926 623.807 476.578C500.163 421.506 354.928 477.256 299.874 600.909L444.328 665.223C424.755 709.184 444.391 761.193 488.37 780.774L424.056 925.227L568.509 989.542C548.936 1033.5 568.572 1085.51 612.551 1105.09L548.237 1249.55C424.584 1194.49 279.35 1250.24 224.296 1373.89L368.749 1438.21C388.322 1394.25 440.11 1374.04 484.09 1393.62L548.405 1249.17C424.752 1194.11 369.002 1048.88 424.056 925.227C300.403 870.173 244.653 724.939 299.698 601.305ZM523.843 701.101L668.296 765.415C687.869 721.455 739.657 701.246 783.637 720.827L847.952 576.374L992.405 640.689C1011.98 596.728 1063.77 576.519 1107.75 596.1L1172.06 451.647C1048.41 396.594 992.658 251.359 1047.71 127.706L1192.16 192.021C1172.59 235.982 1192.23 287.991 1236.21 307.572L1171.89 452.025C1048.24 396.971 903.005 452.721 847.952 576.374C724.299 521.32 579.065 577.071 524.011 700.723L668.464 765.038C648.892 808.999 668.527 861.007 712.507 880.588L648.192 1025.04L792.645 1089.36C773.073 1133.32 792.708 1185.33 836.688 1204.91L772.373 1349.36C648.721 1294.31 503.486 1350.06 448.432 1473.71L592.886 1538.02C612.458 1494.06 664.247 1473.85 708.227 1493.44L772.541 1348.98C648.889 1293.93 593.138 1148.69 648.192 1025.04C524.54 969.988 468.789 824.753 523.843 701.101ZM747.988 800.897L892.441 865.211C912.014 821.25 963.802 801.042 1007.78 820.623L1072.1 676.17C948.444 621.116 803.21 676.866 748.156 800.519L892.609 864.834C873.037 908.794 892.672 960.803 936.652 980.384L872.337 1124.84C748.685 1069.78 692.934 924.549 747.988 800.897ZM1644.55 1200.07L1500.1 1135.76C1519.67 1091.8 1500.03 1039.79 1456.05 1020.21L1520.37 875.753L1375.91 811.438C1395.49 767.478 1375.85 715.469 1331.87 695.888L1396.19 551.435C1519.84 606.488 1665.07 550.738 1720.13 427.085L1575.67 362.771C1556.1 406.731 1504.31 426.94 1460.33 407.359L1396.02 551.812C1519.67 606.866 1575.42 752.1 1520.37 875.753C1644.02 930.807 1699.77 1076.04 1644.72 1199.69L1500.26 1135.38C1480.69 1179.34 1428.9 1199.55 1384.92 1179.97L1320.61 1324.42L1176.16 1260.11C1156.58 1304.07 1104.79 1324.28 1060.81 1304.69L996.499 1449.15C1120.15 1504.2 1175.9 1649.44 1120.85 1773.09L976.395 1708.77C995.968 1664.81 976.332 1612.8 932.353 1593.22L996.668 1448.77C1120.32 1503.82 1265.55 1448.07 1320.61 1324.42C1444.26 1379.47 1589.5 1323.72 1644.55 1200.07ZM1196.28 1000.49L1051.82 936.173C1071.4 892.213 1051.76 840.204 1007.78 820.623L1072.1 676.17C1195.75 731.223 1251.5 876.458 1196.45 1000.11L1051.99 935.796C1032.42 979.757 980.631 999.965 936.652 980.384L872.337 1124.84C995.99 1179.89 1141.22 1124.14 1196.28 1000.49ZM0.327308 1273.7L144.781 1338.02C164.353 1294.06 216.142 1273.85 260.122 1293.43L324.436 1148.98C200.784 1093.92 145.033 948.687 200.087 825.035L344.54 889.349C324.968 933.31 344.603 985.319 388.583 1004.9L324.268 1149.35C200.616 1094.3 55.381 1150.05 0.327308 1273.7ZM1345.16 1872.46L1200.71 1808.15C1220.28 1764.18 1200.64 1712.18 1156.66 1692.59L1220.98 1548.14C1344.63 1603.2 1489.87 1547.45 1544.92 1423.79L1400.47 1359.48C1380.89 1403.44 1329.1 1423.65 1285.13 1404.07L1220.81 1548.52C1344.46 1603.57 1400.21 1748.81 1345.16 1872.46ZM599.253 -71.5076L743.707 -7.19292C724.134 36.7678 743.77 88.7765 787.749 108.357L723.434 252.811C599.782 197.757 454.547 253.507 399.494 377.16L543.947 441.475C563.519 397.514 615.308 377.305 659.288 396.886L723.603 252.433C599.958 197.361 544.2 52.1449 599.253 -71.5076ZM1944.09 527.25L1799.63 462.936C1780.06 506.896 1728.27 527.105 1684.29 507.524L1619.98 651.977C1743.63 707.031 1799.38 852.265 1744.33 975.918L1599.87 911.603C1619.45 867.642 1599.81 815.634 1555.83 796.053L1620.14 651.6C1743.8 706.653 1889.03 650.903 1944.09 527.25Z" fill="#EFEFEF"/>
</svg>
