<svg width="215" height="394" viewBox="0 0 215 394" fill="none" xmlns="http://www.w3.org/2000/svg">
<path fill-rule="evenodd" clip-rule="evenodd" d="M-134.5 457.133C-67.86 486.803 -37.8143 565.075 -67.4845 631.715L-145.335 597.054C-155.883 620.746 -183.794 631.637 -207.496 621.084L-242.157 698.934L-320.008 664.273C-330.556 687.965 -358.467 698.856 -382.169 688.303L-416.83 766.154C-350.19 795.824 -320.144 874.096 -349.814 940.736L-427.665 906.075C-417.116 882.383 -427.699 854.354 -451.401 843.801L-416.739 765.95C-350.099 795.62 -271.827 765.575 -242.157 698.934C-175.517 728.605 -97.2453 698.559 -67.5751 631.919L-145.426 597.257C-134.877 573.566 -145.46 545.536 -169.162 534.984L-134.5 457.133L-212.351 422.472C-201.803 398.78 -212.385 370.751 -236.087 360.198L-201.426 282.347C-134.785 312.018 -56.5136 281.972 -26.8434 215.332L-104.694 180.67C-115.242 204.362 -143.153 215.253 -166.855 204.7L-201.516 282.551C-134.876 312.221 -104.83 390.493 -134.5 457.133ZM-671.469 362.804L-593.619 397.465C-583.07 373.773 -555.16 362.882 -531.458 373.435L-496.797 295.585L-418.946 330.246C-408.398 306.554 -380.487 295.663 -356.785 306.216L-322.124 228.365C-388.764 198.695 -418.81 120.424 -389.14 53.7832L-311.289 88.4444C-321.837 112.136 -311.255 140.165 -287.553 150.718L-322.214 228.569C-388.855 198.899 -467.126 228.944 -496.797 295.585C-563.432 265.904 -641.704 295.95 -671.374 362.59L-593.524 397.252C-604.072 420.943 -593.49 448.973 -569.788 459.525L-604.449 537.376L-526.598 572.037C-537.147 595.729 -526.564 623.758 -502.862 634.311L-537.524 712.161C-604.164 682.491 -682.436 712.537 -712.106 779.177L-634.255 813.839C-623.707 790.147 -595.796 779.256 -572.094 789.809L-537.433 711.958C-604.073 682.288 -634.119 604.016 -604.449 537.376C-671.089 507.706 -701.135 429.434 -671.469 362.804ZM-550.67 416.587L-472.82 451.248C-462.271 427.556 -434.361 416.665 -410.659 427.218L-375.998 349.368L-298.147 384.029C-287.599 360.337 -259.688 349.446 -235.986 359.999L-201.325 282.149C-267.965 252.478 -298.011 174.207 -268.341 107.566L-190.49 142.228C-201.038 165.919 -190.456 193.949 -166.754 204.501L-201.415 282.352C-268.056 252.682 -346.327 282.727 -375.998 349.368C-442.638 319.698 -520.91 349.743 -550.58 416.384L-472.729 451.045C-483.278 474.737 -472.695 502.766 -448.993 513.319L-483.654 591.169L-405.804 625.83C-416.352 649.522 -405.77 677.552 -382.068 688.104L-416.729 765.955C-483.37 736.285 -561.641 766.33 -591.311 832.971L-513.461 867.632C-502.913 843.94 -475.002 833.049 -451.3 843.602L-416.639 765.751C-483.279 736.081 -513.325 657.81 -483.654 591.169C-550.295 561.499 -580.34 483.227 -550.67 416.587ZM-429.871 470.37L-352.021 505.032C-341.472 481.34 -313.562 470.449 -289.86 481.001L-255.199 403.151C-321.839 373.481 -400.111 403.526 -429.781 470.167L-351.93 504.828C-362.478 528.52 -351.896 556.549 -328.194 567.102L-362.855 644.952C-429.496 615.282 -459.541 537.011 -429.871 470.37ZM53.3145 685.498L-24.536 650.837C-13.9877 627.145 -24.57 599.116 -48.272 588.563L-13.6108 510.713L-91.4612 476.052C-80.9129 452.36 -91.4952 424.33 -115.197 413.778L-80.536 335.927C-13.8956 365.597 64.376 335.552 94.0462 268.911L16.1957 234.25C5.64745 257.942 -22.2633 268.833 -45.9653 258.28L-80.6266 336.131C-13.9862 365.801 16.0594 444.072 -13.6108 510.713C53.0296 540.383 83.0753 618.655 53.4051 685.295L-24.4454 650.634C-34.9937 674.326 -62.9044 685.217 -86.6064 674.664L-121.268 752.514L-199.118 717.853C-209.666 741.545 -237.577 752.436 -261.279 741.883L-295.94 819.733C-229.3 849.404 -199.254 927.675 -228.925 994.316L-306.775 959.654C-296.227 935.963 -306.809 907.933 -330.511 897.381L-295.85 819.53C-229.209 849.2 -150.938 819.155 -121.268 752.514C-54.6273 782.184 23.6443 752.139 53.3145 685.498ZM-188.273 577.937L-266.124 543.275C-255.576 519.583 -266.158 491.554 -289.86 481.001L-255.199 403.151C-188.558 432.821 -158.513 511.093 -188.183 577.733L-266.033 543.072C-276.582 566.764 -304.492 577.655 -328.194 567.102L-362.855 644.952C-296.215 674.623 -217.943 644.577 -188.273 577.937ZM-832.81 725.181L-754.959 759.842C-744.411 736.15 -716.5 725.259 -692.798 735.812L-658.137 657.961C-724.777 628.291 -754.823 550.019 -725.153 483.379L-647.302 518.04C-657.851 541.732 -647.268 569.761 -623.566 580.314L-658.228 658.165C-724.868 628.495 -803.14 658.54 -832.81 725.181ZM-108.036 1047.87L-185.887 1013.21C-175.338 989.517 -185.921 961.488 -209.623 950.935L-174.961 873.085C-108.321 902.755 -30.0494 872.709 -0.379212 806.069L-78.2297 771.408C-88.778 795.1 -116.689 805.991 -140.391 795.438L-175.052 873.288C-108.412 902.959 -78.3659 981.23 -108.036 1047.87ZM-510.029 0.203451L-432.179 34.8647C-442.727 58.5566 -432.145 86.5857 -408.443 97.1386L-443.104 174.989C-509.744 145.319 -588.016 175.365 -617.686 242.005L-539.836 276.666C-529.287 252.974 -501.377 242.083 -477.675 252.636L-443.013 174.786C-509.649 145.105 -539.699 66.8438 -510.029 0.203451ZM214.744 322.893L136.894 288.232C126.346 311.924 98.435 322.815 74.733 312.262L40.0717 390.113C106.712 419.783 136.758 498.055 107.088 564.695L29.237 530.034C39.7853 506.342 29.203 478.313 5.50099 467.76L40.1623 389.909C106.803 419.579 185.074 389.534 214.744 322.893Z" fill="#64B572"/>
</svg>
