<svg width="671" height="813" viewBox="0 0 671 813" fill="none" xmlns="http://www.w3.org/2000/svg">
<path opacity="0.5" fill-rule="evenodd" clip-rule="evenodd" d="M1622.48 -379.167C1777.27 -310.249 1847.06 -128.439 1778.15 26.3541L1597.31 -54.1574C1572.81 0.874281 1507.98 26.1719 1452.93 1.65974L1372.42 182.492L1191.58 101.98C1167.08 157.012 1102.25 182.31 1047.2 157.797L966.684 338.629C1121.48 407.547 1191.27 589.357 1122.35 744.15L941.517 663.639C966.018 608.607 941.438 543.501 886.382 518.989L966.894 338.157C1121.69 407.075 1303.5 337.284 1372.42 182.492C1527.21 251.41 1709.02 181.619 1777.94 26.8266L1597.1 -53.6849C1621.61 -108.717 1597.03 -173.823 1541.97 -198.335L1622.48 -379.167L1441.65 -459.679C1466.15 -514.71 1441.57 -579.817 1386.52 -604.329L1467.03 -785.161C1621.82 -716.242 1803.63 -786.033 1872.55 -940.826L1691.72 -1021.34C1667.21 -966.306 1602.38 -941.008 1547.33 -965.52L1466.82 -784.688C1621.61 -715.77 1691.4 -533.96 1622.48 -379.167ZM375.205 -598.276L556.037 -517.764C580.539 -572.796 645.37 -598.094 700.425 -573.581L780.937 -754.413L961.768 -673.902C986.27 -728.933 1051.1 -754.231 1106.16 -729.719L1186.67 -910.551C1031.88 -979.469 962.085 -1161.28 1031 -1316.07L1211.83 -1235.56C1187.33 -1180.53 1211.91 -1115.42 1266.97 -1090.91L1186.46 -910.078C1031.66 -978.996 849.855 -909.206 780.937 -754.413C626.154 -823.355 444.344 -753.565 375.426 -598.772L556.258 -518.26C531.756 -463.229 556.337 -398.122 611.392 -373.61L530.881 -192.778L711.712 -112.267C687.211 -57.235 711.791 7.8714 766.847 32.3836L686.335 213.215C531.542 144.297 349.732 214.088 280.814 368.88L461.646 449.392C486.148 394.36 550.979 369.063 606.034 393.575L686.545 212.743C531.753 143.825 461.962 -37.9854 530.881 -192.778C376.088 -261.696 306.297 -443.506 375.205 -598.276ZM655.798 -473.348L836.63 -392.836C861.132 -447.868 925.963 -473.166 981.018 -448.653L1061.53 -629.485L1242.36 -548.974C1266.86 -604.005 1331.69 -629.303 1386.75 -604.791L1467.26 -785.623C1312.47 -854.541 1242.68 -1036.35 1311.6 -1191.14L1492.43 -1110.63C1467.93 -1055.6 1492.51 -990.494 1547.56 -965.982L1467.05 -785.15C1312.26 -854.068 1130.45 -784.278 1061.53 -629.485C906.737 -698.403 724.927 -628.613 656.008 -473.82L836.84 -393.309C812.339 -338.277 836.919 -273.171 891.975 -248.658L811.463 -67.8265L992.295 12.685C967.793 67.7167 992.374 132.823 1047.43 157.335L966.918 338.167C812.125 269.249 630.315 339.039 561.397 493.832L742.228 574.344C766.73 519.312 831.561 494.014 886.616 518.526L967.128 337.695C812.335 268.776 742.545 86.9663 811.463 -67.8265C656.67 -136.745 586.88 -318.555 655.798 -473.348ZM936.391 -348.42L1117.22 -267.908C1141.72 -322.94 1206.56 -348.237 1261.61 -323.725L1342.12 -504.557C1187.33 -573.475 1005.52 -503.685 936.602 -348.892L1117.43 -268.381C1092.93 -213.349 1117.51 -148.243 1172.57 -123.73L1092.06 57.1015C937.263 -11.8167 867.473 -193.627 936.391 -348.42ZM2058.74 151.282L1877.91 70.7707C1902.41 15.739 1877.83 -49.3675 1822.77 -73.8797L1903.29 -254.711L1722.45 -335.223C1746.95 -390.255 1722.37 -455.361 1667.32 -479.873L1747.83 -660.705C1902.62 -591.787 2084.43 -661.577 2153.35 -816.37L1972.52 -896.882C1948.02 -841.85 1883.19 -816.552 1828.13 -841.065L1747.62 -660.233C1902.41 -591.314 1972.2 -409.504 1903.29 -254.711C2058.08 -185.793 2127.87 -3.98329 2058.95 150.81L1878.12 70.2981C1853.62 125.33 1788.79 150.627 1733.73 126.115L1653.22 306.947L1472.39 226.436C1447.89 281.467 1383.05 306.765 1328 282.253L1247.49 463.085C1402.28 532.003 1472.07 713.813 1403.15 868.606L1222.32 788.094C1246.82 733.063 1222.24 667.956 1167.19 643.444L1247.7 462.612C1402.49 531.53 1584.3 461.74 1653.22 306.947C1808.01 375.865 1989.82 306.075 2058.74 151.282ZM1497.58 -98.5634L1316.75 -179.075C1341.25 -234.107 1316.67 -299.213 1261.61 -323.725L1342.12 -504.557C1496.92 -435.639 1566.71 -253.829 1497.79 -99.036L1316.96 -179.548C1292.45 -124.516 1227.62 -99.2181 1172.57 -123.73L1092.06 57.1015C1246.85 126.02 1428.66 56.2294 1497.58 -98.5634ZM0.441843 243.456L181.274 323.968C205.775 268.936 270.607 243.638 325.662 268.15L406.173 87.3186C251.381 18.4004 181.59 -163.41 250.508 -318.203L431.34 -237.691C406.839 -182.659 431.419 -117.553 486.475 -93.0407L405.963 87.7912C251.17 18.873 69.3601 88.6633 0.441843 243.456ZM1683.95 993.004L1503.12 912.492C1527.62 857.46 1503.04 792.354 1447.99 767.842L1528.5 587.01C1683.29 655.928 1865.1 586.138 1934.02 431.345L1753.19 350.833C1728.69 405.865 1663.85 431.163 1608.8 406.65L1528.29 587.482C1683.08 656.401 1752.87 838.211 1683.95 993.004ZM750.2 -1440.53L931.032 -1360.02C906.53 -1304.98 931.11 -1239.88 986.166 -1215.37L905.654 -1034.53C750.861 -1103.45 569.051 -1033.66 500.133 -878.869L680.965 -798.357C705.467 -853.389 770.298 -878.687 825.353 -854.174L905.865 -1035.01C751.082 -1103.95 681.281 -1285.73 750.2 -1440.53ZM2433.71 -690.98L2252.88 -771.492C2228.38 -716.46 2163.55 -691.162 2108.49 -715.674L2027.98 -534.843C2182.77 -465.924 2252.56 -284.114 2183.64 -129.321L2002.81 -209.833C2027.31 -264.865 2002.73 -329.971 1947.68 -354.483L2028.19 -535.315C2182.98 -466.397 2364.79 -536.187 2433.71 -690.98Z" fill="#EFEFEF"/>
</svg>
