<svg width="199" height="501" viewBox="0 0 199 501" fill="none" xmlns="http://www.w3.org/2000/svg">
<g clip-path="url(#clip0_66_174)">
<path fill-rule="evenodd" clip-rule="evenodd" d="M-150.5 223.133C-83.8601 252.803 -53.8144 331.075 -83.4846 397.715L-161.335 363.054C-171.883 386.746 -199.794 397.637 -223.496 387.084L-258.157 464.934L-336.008 430.273C-346.556 453.965 -374.467 464.856 -398.169 454.303L-432.83 532.154C-366.19 561.824 -336.144 640.096 -365.814 706.736L-443.665 672.075C-433.116 648.383 -443.699 620.354 -467.401 609.801L-432.739 531.95C-366.099 561.62 -287.827 531.575 -258.157 464.934C-191.517 494.605 -113.245 464.559 -83.5752 397.919L-161.426 363.257C-150.877 339.566 -161.46 311.536 -185.162 300.984L-150.5 223.133L-228.351 188.472C-217.803 164.78 -228.385 136.751 -252.087 126.198L-217.426 48.3475C-150.785 78.0177 -72.5136 47.9721 -42.8434 -18.6683L-120.694 -53.3296C-131.242 -29.6377 -159.153 -18.7467 -182.855 -29.2995L-217.516 48.551C-150.876 78.2212 -120.83 156.493 -150.5 223.133ZM-687.469 128.804L-609.619 163.465C-599.07 139.773 -571.16 128.882 -547.458 139.435L-512.797 61.5847L-434.946 96.246C-424.398 72.5541 -396.487 61.6631 -372.785 72.2159L-338.124 -5.63452C-404.764 -35.3048 -434.81 -113.576 -405.14 -180.217L-327.289 -145.556C-337.837 -121.864 -327.255 -93.8344 -303.553 -83.2816L-338.214 -5.43109C-404.855 -35.1013 -483.126 -5.05561 -512.797 61.5847C-579.432 31.9044 -657.704 61.95 -687.374 128.59L-609.524 163.252C-620.072 186.943 -609.49 214.973 -585.788 225.525L-620.449 303.376L-542.598 338.037C-553.147 361.729 -542.564 389.758 -518.862 400.311L-553.524 478.161C-620.164 448.491 -698.436 478.537 -728.106 545.177L-650.255 579.839C-639.707 556.147 -611.796 545.256 -588.094 555.809L-553.433 477.958C-620.073 448.288 -650.119 370.016 -620.449 303.376C-687.089 273.706 -717.135 195.434 -687.469 128.804ZM-566.67 182.587L-488.82 217.248C-478.272 193.556 -450.361 182.665 -426.659 193.218L-391.998 115.368L-314.147 150.029C-303.599 126.337 -275.688 115.446 -251.986 125.999L-217.325 48.1486C-283.965 18.4784 -314.011 -59.7932 -284.341 -126.434L-206.49 -91.7723C-217.038 -68.0804 -206.456 -40.0513 -182.754 -29.4984L-217.415 48.3521C-284.056 18.6819 -362.327 48.7275 -391.998 115.368C-458.638 85.6977 -536.91 115.743 -566.58 182.384L-488.729 217.045C-499.278 240.737 -488.695 268.766 -464.993 279.319L-499.654 357.169L-421.804 391.83C-432.352 415.522 -421.77 443.552 -398.068 454.104L-432.729 531.955C-499.37 502.285 -577.641 532.33 -607.311 598.971L-529.461 633.632C-518.913 609.94 -491.002 599.049 -467.3 609.602L-432.639 531.751C-499.279 502.081 -529.325 423.81 -499.654 357.169C-566.295 327.499 -596.34 249.227 -566.67 182.587ZM-445.871 236.37L-368.021 271.032C-357.472 247.34 -329.562 236.449 -305.86 247.001L-271.199 169.151C-337.839 139.481 -416.111 169.526 -445.781 236.167L-367.93 270.828C-378.478 294.52 -367.896 322.549 -344.194 333.102L-378.855 410.952C-445.496 381.282 -475.541 303.011 -445.871 236.37ZM37.3145 451.498L-40.5361 416.837C-29.9878 393.145 -40.5701 365.116 -64.2721 354.563L-29.6108 276.713L-107.461 242.052C-96.913 218.36 -107.495 190.33 -131.197 179.778L-96.5361 101.927C-29.8957 131.597 48.3759 101.552 78.0461 34.9114L0.195679 0.250214C-10.3527 23.9421 -38.2633 34.833 -61.9653 24.2802L-96.6266 102.131C-29.9862 131.801 0.0593891 210.072 -29.6108 276.713C37.0296 306.383 67.0752 384.655 37.405 451.295L-40.4454 416.634C-50.9937 440.326 -78.9045 451.217 -102.606 440.664L-137.268 518.514L-215.118 483.853C-225.666 507.545 -253.577 518.436 -277.279 507.883L-311.94 585.733C-245.3 615.404 -215.254 693.675 -244.925 760.316L-322.775 725.654C-312.227 701.963 -322.809 673.933 -346.511 663.381L-311.85 585.53C-245.209 615.2 -166.938 585.155 -137.268 518.514C-70.6274 548.184 7.64423 518.139 37.3145 451.498ZM-204.273 343.937L-282.124 309.275C-271.576 285.583 -282.158 257.554 -305.86 247.001L-271.199 169.151C-204.558 198.821 -174.513 277.093 -204.183 343.733L-282.033 309.072C-292.582 332.764 -320.492 343.655 -344.194 333.102L-378.855 410.952C-312.215 440.623 -233.944 410.577 -204.273 343.937ZM-848.81 491.181L-770.959 525.842C-760.411 502.15 -732.5 491.259 -708.798 501.812L-674.137 423.961C-740.777 394.291 -770.823 316.019 -741.153 249.379L-663.302 284.04C-673.851 307.732 -663.268 335.761 -639.566 346.314L-674.228 424.165C-740.868 394.495 -819.14 424.54 -848.81 491.181ZM-124.036 813.871L-201.887 779.209C-191.338 755.517 -201.921 727.488 -225.623 716.935L-190.961 639.085C-124.321 668.755 -46.0495 638.709 -16.3793 572.069L-94.2297 537.408C-104.778 561.1 -132.689 571.991 -156.391 561.438L-191.052 639.288C-124.412 668.959 -94.3661 747.23 -124.036 813.871ZM-526.029 -233.797L-448.179 -199.135C-458.727 -175.443 -448.145 -147.414 -424.443 -136.861L-459.104 -59.0108C-525.744 -88.681 -604.016 -58.6354 -633.686 8.005L-555.836 42.6663C-545.287 18.9744 -517.377 8.08343 -493.675 18.6362L-459.013 -59.2143C-525.649 -88.8947 -555.699 -167.156 -526.029 -233.797ZM198.744 88.8935L120.894 54.2323C110.346 77.9241 82.4349 88.8151 58.7329 78.2623L24.0717 156.113C90.712 185.783 120.758 264.055 91.0875 330.695L13.2369 296.034C23.7852 272.342 13.2029 244.313 -10.4991 233.76L24.1622 155.909C90.8025 185.579 169.074 155.534 198.744 88.8935Z" fill="#64B572"/>
</g>
<defs>
<clipPath id="clip0_66_174">
<rect width="199" height="501" fill="white"/>
</clipPath>
</defs>
</svg>
