<svg width="1814" height="1814" viewBox="0 0 1814 1814" fill="none" xmlns="http://www.w3.org/2000/svg">
<path fill-rule="evenodd" clip-rule="evenodd" d="M1209.08 791.282C1324.43 842.64 1376.44 978.126 1325.08 1093.48L1190.33 1033.48C1172.07 1074.49 1123.75 1093.34 1082.73 1075.08L1022.73 1209.83L887.972 1149.83C869.714 1190.84 821.401 1209.7 780.374 1191.43L720.376 1326.19C835.729 1377.54 887.737 1513.03 836.379 1628.38L701.622 1568.39C719.881 1527.38 701.563 1478.86 660.536 1460.59L720.533 1325.83C835.885 1377.19 971.371 1325.18 1022.73 1209.83C1138.08 1261.19 1273.57 1209.18 1324.93 1093.83L1190.17 1033.83C1208.43 992.823 1190.11 944.305 1149.08 926.039L1209.08 791.282L1074.32 731.285C1092.58 690.275 1074.26 641.757 1033.24 623.491L1093.23 488.734C1208.59 540.092 1344.07 488.084 1395.43 372.732L1260.67 312.734C1242.41 353.744 1194.1 372.596 1153.08 354.33L1093.08 489.086C1208.43 540.444 1260.44 675.93 1209.08 791.282ZM279.604 628.001L414.361 687.999C432.62 646.989 480.932 628.137 521.959 646.404L581.957 511.647L716.714 571.645C734.972 530.635 783.285 511.783 824.312 530.049L884.31 395.293C768.957 343.935 716.949 208.449 768.308 93.0969L903.064 153.094C884.805 194.104 903.123 242.622 944.15 260.888L884.153 395.645C768.801 344.287 633.315 396.295 581.957 511.647C466.613 460.271 331.127 512.279 279.769 627.632L414.525 687.629C396.267 728.639 414.584 777.157 455.612 795.423L395.614 930.18L530.371 990.177C512.112 1031.19 530.43 1079.7 571.457 1097.97L511.46 1232.73C396.107 1181.37 260.622 1233.38 209.264 1348.73L344.02 1408.73C362.279 1367.72 410.591 1348.87 451.619 1367.13L511.616 1232.38C396.264 1181.02 344.256 1045.53 395.614 930.18C280.262 878.822 228.254 743.336 279.604 628.001ZM488.703 721.098L623.46 781.096C641.719 740.086 690.031 721.234 731.059 739.501L791.056 604.744L925.813 664.742C944.071 623.732 992.384 604.88 1033.41 623.146L1093.41 488.39C978.057 437.032 926.048 301.546 977.407 186.194L1112.16 246.191C1093.9 287.201 1112.22 335.719 1153.25 353.985L1093.25 488.742C977.9 437.384 842.414 489.392 791.056 604.744C675.704 553.386 540.218 605.394 488.86 720.746L623.617 780.744C605.358 821.754 623.676 870.271 664.703 888.538L604.705 1023.29L739.462 1083.29C721.203 1124.3 739.521 1172.82 780.548 1191.09L720.551 1325.84C605.199 1274.48 469.713 1326.49 418.355 1441.84L553.111 1501.84C571.37 1460.83 619.683 1441.98 660.71 1460.25L720.708 1325.49C605.355 1274.13 553.347 1138.65 604.705 1023.29C489.353 971.936 437.345 836.451 488.703 721.098ZM697.802 814.195L832.559 874.193C850.818 833.183 899.13 814.331 940.158 832.598L1000.16 697.841C884.803 646.483 749.317 698.491 697.959 813.843L832.716 873.841C814.457 914.85 832.775 963.368 873.802 981.635L813.805 1116.39C698.452 1065.03 646.444 929.548 697.802 814.195ZM1534.18 1186.58L1399.42 1126.58C1417.68 1085.57 1399.37 1037.05 1358.34 1018.78L1418.34 884.027L1283.58 824.029C1301.84 783.02 1283.52 734.502 1242.49 716.235L1302.49 581.479C1417.84 632.837 1553.33 580.829 1604.69 465.477L1469.93 405.479C1451.67 446.489 1403.36 465.341 1362.33 447.074L1302.33 581.831C1417.69 633.189 1469.69 768.675 1418.34 884.027C1533.69 935.385 1585.7 1070.87 1534.34 1186.22L1399.58 1126.23C1381.32 1167.24 1333.01 1186.09 1291.98 1167.82L1231.99 1302.58L1097.23 1242.58C1078.97 1283.59 1030.66 1302.44 989.63 1284.17L929.632 1418.93C1044.98 1470.29 1096.99 1605.78 1045.63 1721.13L910.878 1661.13C929.137 1620.12 910.819 1571.6 869.792 1553.34L929.789 1418.58C1045.14 1469.94 1180.63 1417.93 1231.99 1302.58C1347.34 1353.94 1482.82 1301.93 1534.18 1186.58ZM1116 1000.39L981.244 940.392C999.503 899.382 981.185 850.864 940.158 832.598L1000.16 697.841C1115.51 749.199 1167.52 884.685 1116.16 1000.04L981.401 940.039C963.142 981.049 914.829 999.901 873.802 981.635L813.805 1116.39C929.157 1167.75 1064.64 1115.74 1116 1000.39ZM0.329213 1255.26L135.086 1315.26C153.345 1274.25 201.657 1255.4 242.684 1273.67L302.682 1138.91C187.33 1087.55 135.322 952.065 186.68 836.713L321.436 896.711C303.178 937.721 321.495 986.238 362.523 1004.5L302.525 1139.26C187.173 1087.9 51.6873 1139.91 0.329213 1255.26ZM1254.89 1813.83L1120.13 1753.83C1138.39 1712.82 1120.07 1664.3 1079.05 1646.04L1139.04 1511.28C1254.4 1562.64 1389.88 1510.63 1441.24 1395.28L1306.48 1335.28C1288.22 1376.29 1239.91 1395.14 1198.88 1376.88L1138.89 1511.63C1254.24 1562.99 1306.25 1698.48 1254.89 1813.83ZM559.052 0.352167L693.808 60.3497C675.55 101.36 693.867 149.877 734.895 168.144L674.897 302.9C559.545 251.542 424.059 303.55 372.701 418.902L507.458 478.9C525.716 437.89 574.029 419.038 615.056 437.305L675.054 302.548C559.709 251.172 507.694 115.704 559.052 0.352167ZM1813.61 558.918L1678.85 498.92C1660.6 539.93 1612.28 558.782 1571.26 540.516L1511.26 675.272C1626.61 726.63 1678.62 862.116 1627.26 977.468L1492.5 917.471C1510.76 876.461 1492.44 827.943 1451.42 809.677L1511.41 674.92C1626.77 726.278 1762.25 674.27 1813.61 558.918Z" fill="#CD3F3F"/>
</svg>
